<svg width="51" height="51" viewBox="0 0 51 51" fill="none" xmlns="http://www.w3.org/2000/svg">
<circle cx="25.5" cy="25.5" r="25.5" fill="#2C2F33"/>
<circle cx="25.5" cy="25.5" r="25.5" fill="url(#paint0_linear_505_35)"/>
<g clip-path="url(#clip0_505_35)">
<path d="M29.0001 35.0004V31.1304C29.0376 30.6536 28.9731 30.1742 28.8111 29.7242C28.649 29.2742 28.393 28.8638 28.0601 28.5204C31.2001 28.1704 34.5001 26.9804 34.5001 21.5204C34.4998 20.1243 33.9628 18.7816 33.0001 17.7704C33.4559 16.5489 33.4237 15.1988 32.9101 14.0004C32.9101 14.0004 31.7301 13.6504 29.0001 15.4804C26.7081 14.8592 24.2921 14.8592 22.0001 15.4804C19.2701 13.6504 18.0901 14.0004 18.0901 14.0004C17.5764 15.1988 17.5442 16.5489 18.0001 17.7704C17.0302 18.7891 16.4926 20.1439 16.5001 21.5504C16.5001 26.9704 19.8001 28.1604 22.9401 28.5504C22.6111 28.8904 22.3573 29.2958 22.1954 29.7403C22.0334 30.1849 21.9669 30.6585 22.0001 31.1304V35.0004M22.0001 32.0004C17.0001 33.5004 17.0001 29.5004 15.0001 29.0004L22.0001 32.0004Z" stroke="url(#paint1_linear_505_35)" stroke-width="2" stroke-linecap="round" stroke-linejoin="round"/>
</g>
<defs>
<linearGradient id="paint0_linear_505_35" x1="25.5" y1="0" x2="25.5" y2="51" gradientUnits="userSpaceOnUse">
<stop stop-color="#23272A" stop-opacity="0.05"/>
<stop offset="1" stop-color="#1C1E1F"/>
</linearGradient>
<linearGradient id="paint1_linear_505_35" x1="15.8318" y1="16.9305" x2="35.8004" y2="17.3756" gradientUnits="userSpaceOnUse">
<stop stop-color="#39AFFD"/>
<stop offset="1" stop-color="#477FFF"/>
</linearGradient>
<clipPath id="clip0_505_35">
<rect width="24" height="24" fill="white" transform="translate(13 13)"/>
</clipPath>
</defs>
</svg>
