<svg width="51" height="51" viewBox="0 0 51 51" fill="none" xmlns="http://www.w3.org/2000/svg">
<circle cx="25.5" cy="25.5" r="25.5" fill="#2C2F33"/>
<circle cx="25.5" cy="25.5" r="25.5" fill="url(#paint0_linear_505_34)"/>
<path d="M29.9999 15H19.9999C17.2385 15 14.9999 17.2386 14.9999 20V30C14.9999 32.7614 17.2385 35 19.9999 35H29.9999C32.7613 35 34.9999 32.7614 34.9999 30V20C34.9999 17.2386 32.7613 15 29.9999 15Z" stroke="url(#paint1_linear_505_34)" stroke-width="2" stroke-linecap="round" stroke-linejoin="round"/>
<path d="M28.9998 24.3703C29.1232 25.2025 28.9811 26.0525 28.5936 26.7993C28.2061 27.5461 27.593 28.1517 26.8415 28.53C26.0899 28.9082 25.2383 29.0399 24.4076 28.9062C23.577 28.7726 22.8096 28.3804 22.2147 27.7855C21.6197 27.1905 21.2276 26.4232 21.0939 25.5925C20.9602 24.7619 21.0919 23.9102 21.4702 23.1587C21.8484 22.4072 22.454 21.794 23.2008 21.4065C23.9476 21.019 24.7976 20.8769 25.6298 21.0003C26.4788 21.1262 27.2647 21.5218 27.8715 22.1286C28.4784 22.7355 28.8739 23.5214 28.9998 24.3703Z" stroke="url(#paint2_linear_505_34)" stroke-width="2" stroke-linecap="round" stroke-linejoin="round"/>
<path d="M30.5001 19.5H30.5101" stroke="url(#paint3_linear_505_34)" stroke-width="2" stroke-linecap="round" stroke-linejoin="round"/>
<defs>
<linearGradient id="paint0_linear_505_34" x1="25.5" y1="0" x2="25.5" y2="51" gradientUnits="userSpaceOnUse">
<stop stop-color="#23272A" stop-opacity="0.05"/>
<stop offset="1" stop-color="#1C1E1F"/>
</linearGradient>
<linearGradient id="paint1_linear_505_34" x1="15.853" y1="17.8125" x2="36.3319" y2="18.3046" gradientUnits="userSpaceOnUse">
<stop stop-color="#39AFFD"/>
<stop offset="1" stop-color="#477FFF"/>
</linearGradient>
<linearGradient id="paint2_linear_505_34" x1="21.3843" y1="22.082" x2="29.5759" y2="22.2789" gradientUnits="userSpaceOnUse">
<stop stop-color="#39AFFD"/>
<stop offset="1" stop-color="#477FFF"/>
</linearGradient>
<linearGradient id="paint3_linear_505_34" x1="30.5005" y1="19.6406" x2="30.5108" y2="19.6406" gradientUnits="userSpaceOnUse">
<stop stop-color="#39AFFD"/>
<stop offset="1" stop-color="#477FFF"/>
</linearGradient>
</defs>
</svg>
