<svg width="35" height="35" viewBox="0 0 35 35" fill="none" xmlns="http://www.w3.org/2000/svg">
<path d="M23.3334 32.0834V26.4396C23.3881 25.7442 23.2942 25.0452 23.0578 24.3889C22.8214 23.7326 22.4481 23.1342 21.9626 22.6334C26.5417 22.123 31.3542 20.3876 31.3542 12.4251C31.3539 10.389 30.5707 8.43097 29.1667 6.9563C29.8315 5.17496 29.7845 3.20598 29.0355 1.45838C29.0355 1.45838 27.3147 0.947968 23.3334 3.61672C19.9909 2.71083 16.4676 2.71083 13.1251 3.61672C9.14383 0.947968 7.423 1.45838 7.423 1.45838C6.67396 3.20598 6.62696 5.17496 7.29175 6.9563C5.87735 8.4419 5.09334 10.4176 5.10425 12.4688C5.10425 20.373 9.91675 22.1084 14.4959 22.6771C14.0161 23.1729 13.6461 23.7642 13.4099 24.4124C13.1737 25.0607 13.0767 25.7514 13.1251 26.4396V32.0834M13.1251 27.7084C5.83341 29.8959 5.83341 24.0626 2.91675 23.3334L13.1251 27.7084Z" stroke="url(#paint0_linear_1157_748)" stroke-width="2" stroke-linecap="round" stroke-linejoin="round"/>
<defs>
<linearGradient id="paint0_linear_1157_748" x1="4.12972" y1="5.73146" x2="33.2505" y2="6.38046" gradientUnits="userSpaceOnUse">
<stop stop-color="#39AFFD"/>
<stop offset="1" stop-color="#477FFF"/>
</linearGradient>
</defs>
</svg>
