<svg width="34" height="34" viewBox="0 0 34 34" fill="none" xmlns="http://www.w3.org/2000/svg">
<path d="M23.3087 32V26.6625C23.3604 26.0049 23.2716 25.3437 23.048 24.7231C22.8245 24.1024 22.4714 23.5365 22.0123 23.0628C26.3429 22.5801 30.8943 20.9389 30.8943 13.4085C30.8939 11.4829 30.1532 9.63115 28.8255 8.23651C29.4542 6.55183 29.4097 4.68971 28.7013 3.03695C28.7013 3.03695 27.0739 2.55424 23.3087 5.07816C20.1476 4.22143 16.8154 4.22143 13.6543 5.07816C9.88915 2.55424 8.26171 3.03695 8.26171 3.03695C7.55332 4.68971 7.50886 6.55183 8.13758 8.23651C6.79994 9.64149 6.05848 11.51 6.06879 13.4499C6.06879 20.9251 10.6201 22.5663 14.9508 23.1042C14.497 23.5731 14.1471 24.1323 13.9237 24.7453C13.7003 25.3584 13.6086 26.0116 13.6543 26.6625V32M13.6543 27.8624C6.75839 29.9312 6.75839 24.4144 4 23.7248L13.6543 27.8624Z" stroke="url(#paint0_linear_461_13)" stroke-width="2" stroke-linecap="round" stroke-linejoin="round"/>
<defs>
<linearGradient id="paint0_linear_461_13" x1="5.14715" y1="7.07813" x2="32.6876" y2="7.69191" gradientUnits="userSpaceOnUse">
<stop stop-color="#39AFFD"/>
<stop offset="1" stop-color="#477FFF"/>
</linearGradient>
</defs>
</svg>
