<svg width="34" height="35" viewBox="0 0 34 35" fill="none" xmlns="http://www.w3.org/2000/svg">
<path d="M24.0832 3.33337H9.91652C6.00451 3.33337 2.83319 6.50469 2.83319 10.4167V24.5834C2.83319 28.4954 6.00451 31.6667 9.91652 31.6667H24.0832C27.9952 31.6667 31.1665 28.4954 31.1665 24.5834V10.4167C31.1665 6.50469 27.9952 3.33337 24.0832 3.33337Z" stroke="url(#paint0_linear_1157_743)" stroke-width="2" stroke-linecap="round" stroke-linejoin="round"/>
<path d="M22.6665 16.6076C22.8414 17.7866 22.64 18.9907 22.091 20.0487C21.5421 21.1066 20.6735 21.9646 19.6088 22.5004C18.5442 23.0363 17.3377 23.2228 16.1609 23.0335C14.9841 22.8441 13.897 22.2885 13.0542 21.4457C12.2114 20.6029 11.6558 19.5158 11.4664 18.339C11.2771 17.1623 11.4636 15.9557 11.9995 14.8911C12.5353 13.8264 13.3933 12.9579 14.4512 12.4089C15.5092 11.8599 16.7133 11.6586 17.8924 11.8334C19.095 12.0117 20.2084 12.5721 21.0681 13.4318C21.9278 14.2915 22.4882 15.4049 22.6665 16.6076Z" stroke="url(#paint1_linear_1157_743)" stroke-width="2" stroke-linecap="round" stroke-linejoin="round"/>
<path d="M24.7919 9.70837H24.806" stroke="url(#paint2_linear_1157_743)" stroke-width="2" stroke-linecap="round" stroke-linejoin="round"/>
<defs>
<linearGradient id="paint0_linear_1157_743" x1="4.04172" y1="7.31776" x2="33.0535" y2="8.01495" gradientUnits="userSpaceOnUse">
<stop stop-color="#39AFFD"/>
<stop offset="1" stop-color="#477FFF"/>
</linearGradient>
<linearGradient id="paint1_linear_1157_743" x1="11.8779" y1="13.3659" x2="23.4826" y2="13.6447" gradientUnits="userSpaceOnUse">
<stop stop-color="#39AFFD"/>
<stop offset="1" stop-color="#477FFF"/>
</linearGradient>
<linearGradient id="paint2_linear_1157_743" x1="24.7925" y1="9.849" x2="24.807" y2="9.849" gradientUnits="userSpaceOnUse">
<stop stop-color="#39AFFD"/>
<stop offset="1" stop-color="#477FFF"/>
</linearGradient>
</defs>
</svg>
