<svg width="34" height="35" viewBox="0 0 34 35" fill="none" xmlns="http://www.w3.org/2000/svg">
<path d="M22.6668 11.8334C24.9211 11.8334 27.0832 12.7289 28.6772 14.323C30.2713 15.917 31.1668 18.079 31.1668 20.3334V30.25H25.5001V20.3334C25.5001 19.5819 25.2016 18.8613 24.6703 18.3299C24.1389 17.7986 23.4183 17.5 22.6668 17.5C21.9154 17.5 21.1947 17.7986 20.6633 18.3299C20.132 18.8613 19.8335 19.5819 19.8335 20.3334V30.25H14.1668V20.3334C14.1668 18.079 15.0623 15.917 16.6564 14.323C18.2505 12.7289 20.4125 11.8334 22.6668 11.8334V11.8334Z" stroke="url(#paint0_linear_1157_737)" stroke-width="2" stroke-linecap="round" stroke-linejoin="round"/>
<path d="M8.49986 13.25H2.83319V30.25H8.49986V13.25Z" stroke="url(#paint1_linear_1157_737)" stroke-width="2" stroke-linecap="round" stroke-linejoin="round"/>
<path d="M5.66652 9.00004C7.23133 9.00004 8.49986 7.73151 8.49986 6.16671C8.49986 4.6019 7.23133 3.33337 5.66652 3.33337C4.10172 3.33337 2.83319 4.6019 2.83319 6.16671C2.83319 7.73151 4.10172 9.00004 5.66652 9.00004Z" stroke="url(#paint2_linear_1157_737)" stroke-width="2" stroke-linecap="round" stroke-linejoin="round"/>
<defs>
<linearGradient id="paint0_linear_1157_737" x1="14.8919" y1="14.4232" x2="32.3005" y2="14.8094" gradientUnits="userSpaceOnUse">
<stop stop-color="#39AFFD"/>
<stop offset="1" stop-color="#477FFF"/>
</linearGradient>
<linearGradient id="paint1_linear_1157_737" x1="3.0749" y1="15.6406" x2="8.88024" y2="15.6871" gradientUnits="userSpaceOnUse">
<stop stop-color="#39AFFD"/>
<stop offset="1" stop-color="#477FFF"/>
</linearGradient>
<linearGradient id="paint2_linear_1157_737" x1="3.0749" y1="4.13025" x2="8.87726" y2="4.26969" gradientUnits="userSpaceOnUse">
<stop stop-color="#39AFFD"/>
<stop offset="1" stop-color="#477FFF"/>
</linearGradient>
</defs>
</svg>
