<svg width="34" height="34" viewBox="0 0 34 34" fill="none" xmlns="http://www.w3.org/2000/svg">
<path d="M28.1012 6.41267C28.3594 6.70946 28.7675 6.82737 29.1441 6.71396C30.0296 6.44733 30.8913 6.11208 31.7216 5.71191C31.2105 6.66948 30.5556 7.54919 29.7754 8.31863C29.5377 8.55301 29.4327 8.89052 29.4954 9.21838C29.5637 9.57564 29.5987 9.93845 29.6 10.3022C29.5995 18.7489 25.579 24.7095 19.9939 27.6822C15.3685 30.1441 9.60082 30.5929 4.01473 28.6166C6.59951 28.155 9.07431 27.1545 11.2716 25.6629C11.572 25.459 11.7383 25.1083 11.706 24.7466C11.6737 24.3849 11.4479 24.0692 11.1161 23.9217C7.83354 22.4628 5.79591 20.5776 4.55029 18.6108C3.30064 16.6377 2.80982 14.5214 2.72022 12.5501C2.63042 10.5745 2.94508 8.76539 3.28705 7.4431C3.32699 7.28866 3.36722 7.14121 3.40709 7.00127C4.86802 8.66301 6.63806 10.0338 8.62484 11.0338C11.1747 12.3172 14.0023 12.9501 16.8559 12.8761C17.3979 12.862 17.83 12.4186 17.83 11.8764V10.3464H17.8301L17.8299 10.333C17.8138 9.13384 18.1664 7.95864 18.84 6.96638C19.5136 5.97411 20.4757 5.21266 21.5962 4.78501C22.7166 4.35735 23.9414 4.28413 25.1048 4.57523C26.2682 4.86634 27.3142 5.50773 28.1012 6.41267Z" stroke="url(#paint0_linear_458_5)" stroke-width="2" stroke-linecap="round" stroke-linejoin="round"/>
<defs>
<linearGradient id="paint0_linear_458_5" x1="0" y1="3.40015" x2="29.92" y2="27.2001" gradientUnits="userSpaceOnUse">
<stop stop-color="#39AFFD"/>
<stop offset="1" stop-color="#477FFF"/>
</linearGradient>
</defs>
</svg>
