<svg width="35" height="35" viewBox="0 0 35 35" fill="none" xmlns="http://www.w3.org/2000/svg">
<path d="M28.9499 6.58183C29.2081 6.87862 29.6162 6.99653 29.9928 6.88312C30.9316 6.60044 31.8444 6.2427 32.7226 5.8141C32.1891 6.83327 31.4986 7.76867 30.6718 8.58408C30.4341 8.81847 30.3291 9.15598 30.3918 9.48384C30.4624 9.8534 30.4986 10.2287 30.5 10.605C30.4995 19.3104 26.3552 25.4566 20.5958 28.5222C15.7976 31.076 9.80839 31.5284 4.01802 29.4485C6.71442 28.9829 9.29708 27.9474 11.5866 26.3932C11.887 26.1893 12.0533 25.8386 12.021 25.4769C11.9887 25.1152 11.7629 24.7995 11.4311 24.652C8.04729 23.1481 5.94497 21.2038 4.65927 19.1738C3.36954 17.1373 2.86326 14.9536 2.77084 12.9204C2.67823 10.8829 3.00274 9.01757 3.35526 7.6545C3.4014 7.47607 3.44791 7.30668 3.49387 7.1471C5.00208 8.87313 6.83377 10.2961 8.89174 11.3319C11.5122 12.6509 14.4182 13.3013 17.3509 13.2253C17.8929 13.2112 18.325 12.7678 18.325 12.2256V10.6506H18.3251L18.3249 10.6372C18.3083 9.3967 18.673 8.18103 19.3698 7.1546C20.0666 6.12817 21.0618 5.3405 22.2209 4.89811C23.3799 4.45573 24.6468 4.37998 25.8503 4.68112C27.0538 4.98225 28.1358 5.64573 28.9499 6.58183Z" stroke="url(#paint0_linear_458_5)" stroke-width="2" stroke-linecap="round" stroke-linejoin="round"/>
<defs>
<linearGradient id="paint0_linear_458_5" x1="0" y1="3.5" x2="30.8" y2="28" gradientUnits="userSpaceOnUse">
<stop stop-color="#39AFFD"/>
<stop offset="1" stop-color="#477FFF"/>
</linearGradient>
</defs>
</svg>
