<svg width="34" height="34" viewBox="0 0 34 34" fill="none" xmlns="http://www.w3.org/2000/svg">
<path fill-rule="evenodd" clip-rule="evenodd" d="M16.5 3C20.3456 3 24.0338 4.52767 26.753 7.24695C29.4723 9.96623 31 13.6544 31 17.5C31 21.3456 29.4723 25.0338 26.753 27.753C24.0338 30.4723 20.3456 32 16.5 32C12.6544 32 8.96623 30.4723 6.24695 27.753C3.52767 25.0338 2 21.3456 2 17.5C2 13.6544 3.52767 9.96623 6.24695 7.24695C8.96623 4.52767 12.6544 3 16.5 3V3ZM27.4174 11.9231C25.9867 9.14133 23.5521 7.00738 20.6068 5.95354C21.5973 7.82738 22.3134 9.83508 22.7328 11.9231H27.4174ZM28.7157 18.6042C28.7514 18.2372 28.7693 17.8687 28.7692 17.5C28.767 16.368 28.6071 15.2418 28.2941 14.1538H23.0696C23.141 14.8922 23.1923 15.6351 23.1923 16.3846C23.1877 17.8834 23.0338 19.3779 22.7328 20.8462H28.2941C28.506 20.1122 28.6465 19.3627 28.7179 18.6042H28.7157ZM20.8299 18.6042L20.8433 18.4905C20.9194 17.7911 20.9589 17.0881 20.9615 16.3846C20.9466 15.6385 20.89 14.8937 20.792 14.1538H12.208C12.1092 14.8936 12.0526 15.6384 12.0385 16.3846C12.0439 17.8866 12.2183 19.3832 12.5582 20.8462H20.4418C20.6135 20.1055 20.7429 19.3582 20.8299 18.6042V18.6042ZM20.4016 11.9231C19.8761 9.56371 18.9275 7.31902 17.602 5.29769C17.2362 5.26646 16.8703 5.23077 16.5 5.23077C16.2676 5.2319 16.0354 5.24307 15.804 5.26423L15.398 5.29769L15.3846 5.32C14.0661 7.33541 13.1222 9.57231 12.5984 11.9231H20.4016ZM10.2672 11.9231C10.6951 9.83652 11.4209 7.82234 12.4222 5.94238C9.46412 6.99263 7.01803 9.13156 5.58262 11.9231H10.2672V11.9231ZM4.70592 14.1538C4.39337 15.2419 4.23346 16.368 4.23077 17.5C4.23346 18.632 4.39337 19.7581 4.70592 20.8462H10.2672C9.96479 19.3782 9.81084 17.8834 9.80769 16.3846C9.80769 15.6351 9.859 14.8922 9.93038 14.1538H4.70592ZM10.8495 23.0769H5.58485C6.42811 24.7241 7.63207 26.1598 9.10709 27.2772C10.5821 28.3945 12.2902 29.1648 14.1042 29.5305C12.6764 27.5701 11.5772 25.3904 10.8495 23.0769ZM16.5 28.9751C17.9264 27.2108 19.0415 25.2162 19.7971 23.0769H13.2029C13.9586 25.2161 15.0736 27.2108 16.5 28.9751ZM22.1505 23.0769C21.4228 25.3904 20.3235 27.5701 18.8958 29.5305C20.7097 29.1645 22.4176 28.3941 23.8926 27.2768C25.3676 26.1594 26.5716 24.7239 27.4152 23.0769H22.1505V23.0769Z" fill="url(#paint0_linear_461_15)"/>
<defs>
<linearGradient id="paint0_linear_461_15" x1="3.23697" y1="7.07813" x2="32.9314" y2="7.79173" gradientUnits="userSpaceOnUse">
<stop stop-color="#39AFFD"/>
<stop offset="1" stop-color="#477FFF"/>
</linearGradient>
</defs>
</svg>
