<svg width="63" height="63" viewBox="0 0 63 63" fill="none" xmlns="http://www.w3.org/2000/svg">
<circle cx="31.5" cy="31.5" r="31.5" transform="rotate(-180 31.5 31.5)" fill="#2C2F33"/>
<circle cx="31.5" cy="31.5" r="31.5" transform="rotate(-180 31.5 31.5)" fill="url(#paint0_linear)"/>
<path fill-rule="evenodd" clip-rule="evenodd" d="M32.7812 14.5625C37.1988 14.5625 41.4353 16.3173 44.559 19.441C47.6827 22.5647 49.4375 26.8012 49.4375 31.2188C49.4375 35.6363 47.6827 39.8728 44.559 42.9965C41.4353 46.1202 37.1988 47.875 32.7812 47.875C28.3637 47.875 24.1272 46.1202 21.0035 42.9965C17.8798 39.8728 16.125 35.6363 16.125 31.2188C16.125 26.8012 17.8798 22.5647 21.0035 19.441C24.1272 16.3173 28.3637 14.5625 32.7812 14.5625V14.5625ZM45.3221 24.8125C43.6787 21.6171 40.882 19.1658 37.4988 17.9552C38.6366 20.1077 39.4591 22.414 39.9409 24.8125H45.3221ZM46.8135 32.4872C46.8545 32.0656 46.875 31.6423 46.875 31.2188C46.8724 29.9184 46.6887 28.6247 46.3292 27.375H40.3278C40.4098 28.2232 40.4688 29.0765 40.4688 29.9375C40.4635 31.6591 40.2866 33.3759 39.9409 35.0625H46.3292C46.5726 34.2194 46.7341 33.3584 46.8161 32.4872H46.8135ZM37.7551 32.4872L37.7704 32.3565C37.8579 31.5531 37.9032 30.7457 37.9062 29.9375C37.889 29.0804 37.824 28.2249 37.7115 27.375H27.851C27.7375 28.2248 27.6725 29.0803 27.6562 29.9375C27.6625 31.6628 27.8628 33.382 28.2533 35.0625H37.3092C37.5065 34.2118 37.6551 33.3533 37.7551 32.4872V32.4872ZM37.2631 24.8125C36.6593 22.1023 35.5698 19.5238 34.0471 17.2019C33.6269 17.166 33.2066 17.125 32.7812 17.125C32.5143 17.1263 32.2476 17.1391 31.9817 17.1634L31.5154 17.2019L31.5 17.2275C29.9854 19.5426 28.9011 22.1122 28.2994 24.8125H37.2631ZM25.6216 24.8125C26.1131 22.4157 26.9468 20.102 28.097 17.9424C24.6991 19.1489 21.8892 21.6059 20.2404 24.8125H25.6216V24.8125ZM19.2333 27.375C18.8743 28.6248 18.6906 29.9184 18.6875 31.2188C18.6906 32.5191 18.8743 33.8127 19.2333 35.0625H25.6216C25.2742 33.3762 25.0974 31.6592 25.0938 29.9375C25.0938 29.0765 25.1527 28.2232 25.2347 27.375H19.2333ZM26.2904 37.625H20.2429C21.2116 39.5171 22.5946 41.1663 24.289 42.4499C25.9833 43.7334 27.9454 44.6182 30.0291 45.0383C28.3891 42.7863 27.1264 40.2825 26.2904 37.625ZM32.7812 44.4003C34.4198 42.3736 35.7006 40.0824 36.5686 37.625H28.9939C29.8619 40.0823 31.1427 42.3736 32.7812 44.4003ZM39.2721 37.625C38.4361 40.2825 37.1734 42.7863 35.5334 45.0383C37.6169 44.6178 39.5789 43.7329 41.2732 42.4494C42.9675 41.1659 44.3506 39.5169 45.3196 37.625H39.2721V37.625Z" fill="url(#paint1_linear)"/>
<defs>
<linearGradient id="paint0_linear" x1="31.5" y1="0" x2="31.5" y2="63" gradientUnits="userSpaceOnUse">
<stop stop-color="#17181A"/>
<stop offset="1" stop-color="#23272A" stop-opacity="0"/>
</linearGradient>
<linearGradient id="paint1_linear" x1="17.5459" y1="19.2471" x2="51.6561" y2="20.0668" gradientUnits="userSpaceOnUse">
<stop stop-color="#39AFFD"/>
<stop offset="1" stop-color="#477FFF"/>
</linearGradient>
</defs>
</svg>
