<svg width="34" height="34" viewBox="0 0 34 34" fill="none" xmlns="http://www.w3.org/2000/svg">
<path fill-rule="evenodd" clip-rule="evenodd" d="M16.7812 0.5625C21.1988 0.5625 25.4353 2.31735 28.559 5.441C31.6827 8.56466 33.4375 12.8012 33.4375 17.2188C33.4375 21.6363 31.6827 25.8728 28.559 28.9965C25.4353 32.1202 21.1988 33.875 16.7812 33.875C12.3637 33.875 8.12716 32.1202 5.0035 28.9965C1.87985 25.8728 0.125 21.6363 0.125 17.2188C0.125 12.8012 1.87985 8.56466 5.0035 5.441C8.12716 2.31735 12.3637 0.5625 16.7812 0.5625ZM29.3221 10.8125C27.6787 7.61708 24.882 5.16581 21.4988 3.95525C22.6366 6.10775 23.4591 8.414 23.9409 10.8125H29.3221ZM30.8135 18.4872C30.8545 18.0656 30.875 17.6423 30.875 17.2188C30.8724 15.9184 30.6887 14.6247 30.3292 13.375H24.3278C24.4098 14.2232 24.4688 15.0765 24.4688 15.9375C24.4635 17.6591 24.2866 19.3759 23.9409 21.0625H30.3292C30.5726 20.2194 30.7341 19.3584 30.8161 18.4872H30.8135ZM21.7551 18.4872L21.7704 18.3565C21.8579 17.5531 21.9032 16.7457 21.9062 15.9375C21.889 15.0804 21.824 14.2249 21.7115 13.375H11.851C11.7375 14.2248 11.6725 15.0803 11.6562 15.9375C11.6625 17.6628 11.8628 19.382 12.2533 21.0625H21.3092C21.5065 20.2118 21.6551 19.3533 21.7551 18.4872ZM21.2631 10.8125C20.6593 8.10227 19.5698 5.52379 18.0471 3.20187C17.6269 3.166 17.2066 3.125 16.7812 3.125C16.5143 3.1263 16.2476 3.13913 15.9817 3.16344L15.5154 3.20187L15.5 3.2275C13.9854 5.54262 12.9011 8.11216 12.2994 10.8125H21.2631ZM9.62162 10.8125C10.1131 8.41566 10.9468 6.10195 12.097 3.94244C8.69908 5.14886 5.88925 7.60587 4.24038 10.8125H9.62162ZM3.23331 13.375C2.87429 14.6248 2.69059 15.9184 2.6875 17.2188C2.69059 18.5191 2.87429 19.8127 3.23331 21.0625H9.62162C9.27421 19.3762 9.09737 17.6592 9.09375 15.9375C9.09375 15.0765 9.15269 14.2232 9.23469 13.375H3.23331ZM10.2904 23.625H4.24294C5.2116 25.5171 6.5946 27.1663 8.28897 28.4499C9.98334 29.7334 11.9454 30.6182 14.0291 31.0383C12.3891 28.7863 11.1264 26.2825 10.2904 23.625ZM16.7812 30.4002C18.4198 28.3736 19.7006 26.0824 20.5686 23.625H12.9939C13.8619 26.0823 15.1427 28.3736 16.7812 30.4002ZM23.2721 23.625C22.4361 26.2825 21.1734 28.7863 19.5334 31.0383C21.6169 30.6178 23.5789 29.7329 25.2732 28.4494C26.9675 27.1659 28.3506 25.5169 29.3196 23.625H23.2721Z" fill="url(#paint0_linear_1157_752)"/>
<defs>
<linearGradient id="paint0_linear_1157_752" x1="1.54591" y1="5.24708" x2="35.6561" y2="6.0668" gradientUnits="userSpaceOnUse">
<stop stop-color="#39AFFD"/>
<stop offset="1" stop-color="#477FFF"/>
</linearGradient>
</defs>
</svg>
