<svg width="517" height="517" viewBox="0 0 517 517" fill="none" xmlns="http://www.w3.org/2000/svg">
<path d="M300.13 297.821L228.295 267.6L172.254 305.401L202.01 317.92C201.383 318.418 200.712 318.856 200.004 319.229C198.826 319.727 197.594 320.085 196.334 320.297C193.831 320.76 190.76 320.682 188.976 321.886C186.19 323.767 188.384 327.182 193.87 329.629L194.357 329.841C200.206 332.295 207.257 332.721 210.125 330.784C212.455 329.212 210.664 326.714 212.053 324.888C212.765 324.222 213.543 323.631 214.376 323.124L244.095 335.629L267.282 319.985C267.187 319.938 267.087 319.892 266.984 319.848C265.989 319.416 264.97 319.042 263.931 318.73C260.472 317.969 255.798 318.89 252.81 317.633C249.154 316.005 249.885 312.308 254.401 309.266C258.956 306.193 265.629 304.955 269.307 306.502C271.588 307.519 271.501 309.12 272.385 310.433C272.925 311.221 273.625 311.886 274.44 312.383C274.549 312.451 274.964 312.659 275.488 312.893C275.926 313.09 276.443 313.302 276.926 313.465L300.13 297.821Z" fill="#9EABD3"/>
<path d="M223.883 403.945C222.072 402.726 218.947 402.799 216.405 402.332C215.122 402.116 213.869 401.75 212.672 401.242C211.952 400.865 211.27 400.421 210.634 399.916L240.877 387.189L217.312 371.289C217.407 371.243 217.509 371.194 217.617 371.15C218.626 370.709 219.661 370.329 220.717 370.012C224.229 369.24 228.981 370.178 232.142 368.847C235.739 367.244 234.981 363.486 230.4 360.395C225.769 357.271 218.986 356.008 215.138 357.634C212.945 358.609 213.02 360.247 212.123 361.58C211.575 362.385 210.862 363.065 210.032 363.576C209.922 363.644 209.496 363.858 208.96 364.097C208.514 364.297 207.985 364.509 207.51 364.675L183.916 348.758L110.891 379.478L167.852 417.912L198.073 405.202C198.918 405.719 199.709 406.32 200.432 406.996C201.843 408.853 200.023 411.383 202.382 412.989C205.307 414.956 212.474 414.525 218.409 412.029L218.896 411.815C224.485 409.329 226.717 405.858 223.883 403.945Z" fill="#9EABD3"/>
<path d="M280.359 332.28L310.565 319.57C311.412 320.084 312.204 320.685 312.927 321.362C314.34 323.221 312.517 325.749 314.877 327.357C317.801 329.324 324.967 328.893 330.903 326.397L331.391 326.185C336.967 323.697 339.204 320.224 336.368 318.31C334.557 317.092 331.432 317.167 328.888 316.697C327.606 316.481 326.354 316.117 325.157 315.61C324.438 315.231 323.756 314.786 323.119 314.282L353.362 301.557L410.333 339.984L337.318 370.717L313.753 354.814C313.846 354.768 313.946 354.724 314.046 354.68C315.059 354.24 316.097 353.859 317.155 353.54C320.67 352.767 325.425 353.705 328.461 352.426C332.181 350.769 331.423 347.013 326.843 343.923C322.213 340.798 315.43 339.536 311.694 341.113C309.374 342.146 309.464 343.771 308.567 345.105C308.019 345.911 307.306 346.592 306.476 347.103C306.364 347.169 305.94 347.383 305.401 347.622C304.957 347.822 304.426 348.036 303.953 348.2L280.359 332.28Z" fill="#9EABD3"/>
<path d="M377.657 415.751L347.936 403.245C347.104 403.752 346.327 404.342 345.616 405.008C344.227 406.838 346.018 409.334 343.688 410.906C340.817 412.841 333.759 412.419 327.92 409.962L327.432 409.75C321.946 407.313 319.75 403.901 322.536 402.007C324.32 400.803 327.393 400.881 329.894 400.418C331.156 400.208 332.389 399.848 333.566 399.348C334.273 398.975 334.943 398.538 335.57 398.042L305.817 385.522L282.605 401.186C282.118 401.023 281.609 400.808 281.17 400.613C280.646 400.37 280.232 400.172 280.124 400.104C279.307 399.603 278.606 398.933 278.067 398.14C277.183 396.826 277.27 395.227 275.101 394.26C271.312 392.663 264.641 393.901 260.084 396.975C255.58 400.016 254.834 403.713 258.378 405.29C261.487 406.601 266.162 405.675 269.618 406.438C270.655 406.749 271.673 407.122 272.667 407.554L272.966 407.693L249.779 423.335L321.617 453.556L377.657 415.751Z" fill="#9EABD3"/>
<path d="M208.664 292.109C208.664 302.191 190.293 310.365 167.632 310.365C144.971 310.365 126.6 302.191 126.6 292.109C126.6 282.026 144.971 273.852 167.632 273.852C190.293 273.852 208.664 282.026 208.664 292.109Z" fill="#9EABD3"/>
<path d="M178.678 290.885L179.351 290.761L180.026 285.109L178.256 283.018L178.678 290.885Z" fill="#561136"/>
<path d="M177.869 290.427L178.678 290.885L178.551 281.636L177.123 281.312L177.869 290.427Z" fill="#152035"/>
<path d="M184.086 278.787L185.588 283.744C185.588 283.744 187.632 288.521 189.316 290.407C189.316 290.407 192.358 294.575 186.667 294.307C186.667 294.307 180.599 293.985 180.689 290.09C180.769 286.742 177.691 282.586 177.691 282.586C176.56 280.637 177.706 279.038 178.088 278.589L179.141 277.388L184.245 276.496L184.086 278.787Z" fill="#E59375"/>
<path d="M189.645 291.943C188.464 292.152 187.25 292.079 186.102 291.732C184.954 291.385 183.903 290.773 183.036 289.944C181.456 288.389 179.658 282.701 180.255 284.583C180.498 285.365 178.646 278.451 179.141 277.371L178.088 278.573C177.705 279.021 176.455 280.715 177.588 282.674C177.588 282.674 180.769 286.725 180.689 290.073C180.598 293.973 186.667 294.29 186.667 294.29C190.079 294.458 190.352 293.022 190.02 291.853C189.897 291.891 189.772 291.921 189.645 291.943Z" fill="#152035"/>
<path d="M192.506 293.607C192.506 293.607 193.361 295.228 190.644 295.228C190.644 295.228 180.459 294.58 180.464 290.205V286.681C180.464 286.681 181.266 291.711 187.554 291.723C187.554 291.723 190.347 291.723 188.904 289.944L192.506 293.607Z" fill="#152035"/>
<path d="M176.114 57.846C176.114 59.1865 175.717 60.4969 174.972 61.6115C174.227 62.7261 173.169 63.5948 171.93 64.1078C170.692 64.6208 169.329 64.755 168.014 64.4935C166.699 64.232 165.492 63.5865 164.544 62.6386C163.596 61.6907 162.95 60.483 162.689 59.1683C162.427 57.8535 162.562 56.4907 163.075 55.2523C163.588 54.0138 164.456 52.9552 165.571 52.2105C166.685 51.4657 167.996 51.0682 169.336 51.0682C171.134 51.0682 172.858 51.7823 174.129 53.0534C175.4 54.3245 176.114 56.0484 176.114 57.846Z" fill="#1A2652"/>
<path d="M174.196 89.0807H187.542C186.935 87.1311 185.68 82.1056 187.625 78.6814L174.14 69.8271C174.14 69.8271 176.536 84.6866 174.196 89.0807Z" fill="#F7A483"/>
<path d="M175.69 80.6945C176.49 82.7368 177.784 83.7336 179.895 84.3989C182.079 85.1177 184.406 85.2901 186.672 84.901C186.46 82.8538 186.572 80.5336 187.625 78.6814L174.14 69.8271C174.14 69.8271 174.872 74.3603 175.13 79.1566C175.313 79.6684 175.491 80.1826 175.69 80.6945Z" fill="#E1876F"/>
<path d="M190.191 81.774L190.9 79.7658L192.628 73.8605C192.872 72.9222 192.979 71.6403 192.657 70.7263C192.137 69.1442 192.043 67.4529 192.384 65.8228C193.481 60.461 191.097 57.6437 191.097 57.6437C187.961 52.7011 180.557 52.7255 180.557 52.7255C171.405 53.2007 170.657 62.0622 170.657 62.0622C169.195 67.9602 173.889 72.854 173.898 72.8637C174.493 73.4828 174.556 74.4869 174.844 75.2546C175.155 76.0751 175.609 76.8335 176.187 77.4943C177.506 79.0274 179.096 80.304 180.878 81.2597C182.514 82.0933 185.684 82.9487 187.946 82.9243C188.879 82.9146 189.784 82.9268 190.191 81.774Z" fill="#F7A483"/>
<path d="M147.468 291.948L148.148 292.045L150.597 286.908L149.595 284.358L147.468 291.948Z" fill="#561136"/>
<path d="M146.849 291.25L147.468 291.947L150.317 283.144L149.067 282.379L146.849 291.25Z" fill="#152035"/>
<path d="M156.465 282.223C156.331 286.366 156.024 290.997 157.684 294.897C157.684 294.897 159.227 299.82 153.926 297.731C153.926 297.731 148.281 295.479 149.617 291.821C150.767 288.674 149.185 283.751 149.185 283.751C148.742 281.534 150.336 280.395 150.843 280.096L152.227 279.294H157.533L156.465 282.223Z" fill="#F7A483"/>
<path d="M157.519 296.469C156.334 296.288 155.207 295.831 154.231 295.134C153.255 294.438 152.456 293.522 151.899 292.459C150.902 290.483 151.022 284.517 150.983 286.498C150.966 287.317 151.426 280.161 152.243 279.308L150.861 280.103C150.354 280.405 148.628 281.607 149.072 283.827C149.072 283.827 150.778 288.684 149.635 291.831C148.299 295.486 153.944 297.741 153.944 297.741C157.127 298.996 157.843 297.721 157.904 296.503C157.775 296.5 157.647 296.488 157.519 296.469Z" fill="#152035"/>
<path d="M159.693 298.962C159.693 298.962 159.985 300.77 157.409 299.898C157.409 299.898 147.972 296.018 149.381 291.877L150.507 288.536C150.507 288.536 149.651 293.556 155.603 295.586C155.603 295.586 158.247 296.483 157.453 294.334L159.693 298.962Z" fill="#152035"/>
<path d="M162.335 220.47C155.567 232.966 154.368 238.055 153.166 247.557C152.462 253.085 152.696 276.367 151.972 279.84C151.67 281.28 157.141 280.49 157.141 280.49C158.14 278.053 174.075 224.56 174.075 224.56C174.075 224.56 175.856 219.018 174.379 218.055C166.946 213.215 165.284 215.021 162.335 220.47Z" fill="#F7A483"/>
<path d="M157.304 281.607C158.306 279.169 174.074 224.56 174.074 224.56C174.074 224.56 175.856 219.018 174.379 218.055C166.948 213.215 165.284 215.021 162.335 220.47C155.567 232.966 154.367 238.055 153.166 247.557C152.462 253.085 151.321 275.563 150.597 279.038C150.597 279.038 154.645 283.861 157.304 281.607Z" fill="#1F2732"/>
<path d="M192.716 130.088C192.716 130.088 197.917 152.103 197.22 154.516C195.209 161.445 176.548 171.164 159.532 156.99C159.532 156.99 163.431 140.707 171.498 126.935C171.498 126.925 174.467 129.991 192.716 130.088Z" fill="#1F2732"/>
<path d="M190.065 85.3542C190.065 85.3542 196.872 98.5149 199.911 105.734C198.629 114.198 194.04 126.752 192.192 129.413C188.149 135.204 169.627 130.023 169.627 130.023L164.289 112.204C179.868 106.611 171.664 90.1944 171.664 90.1944L174.101 88.6517C174.101 88.6517 176.592 96.7211 186.733 96.4336C186.733 96.4336 190.065 94.2645 187.613 85.0593C188.437 85.0865 189.258 85.1852 190.065 85.3542Z" fill="#6652A2"/>
<path d="M173.119 160.436C173.119 160.436 174.91 195.95 181.481 215.053C182.456 217.899 193.689 214.114 193.689 214.114C193.689 214.114 199.36 183.557 199.014 170.896C198.821 163.741 196.262 148.311 196.262 148.311C196.262 148.311 175.205 145.559 173.119 160.436Z" fill="#E59375"/>
<path d="M181.812 214.924L193.698 214.114C193.698 214.114 186.387 274.744 185.733 277.29C185.733 277.29 180.615 279.14 180.728 277.671C180.971 274.132 176.713 246.923 176.584 241.357C176.365 232.405 176.716 226.751 181.812 214.924Z" fill="#E59375"/>
<path d="M173.119 160.436C173.119 160.436 174.91 195.95 181.481 215.053C182.456 217.899 193.689 214.114 193.689 214.114C193.689 214.114 199.36 183.557 199.014 170.896C198.821 163.741 196.262 148.311 196.262 148.311C196.262 148.311 175.205 145.559 173.119 160.436Z" fill="#171F29"/>
<path d="M187.196 277.671C188.402 275.331 193.688 214.114 193.688 214.114L181.812 214.924C176.726 226.751 176.375 232.405 176.584 241.352C176.713 246.923 179.411 274.132 179.163 277.666C179.153 277.671 185.611 280.746 187.196 277.671Z" fill="#171F29"/>
<path d="M211.563 128.468L202.546 95.8096C199.302 87.0724 194.464 86.8579 194.464 86.8579C185.186 88.2617 191.125 104.542 191.125 104.542L202.58 131.672" fill="#E59375"/>
<path d="M237.674 152.871C233.775 149.98 233.509 149.196 232.919 148.021C230.38 142.978 236.858 144.083 238.439 144.697C239.346 145.05 239.075 147.29 241.583 150.446C241.583 150.446 245.768 153.782 246.923 153.758C246.923 153.758 248.073 154.099 247.949 154.947C247.949 154.947 244.447 156.371 237.674 152.871Z" fill="#E59375"/>
<path d="M210.865 126.569L237.25 146.529C237.981 150.168 236.312 150.429 236.312 150.429L215.028 140.746C205.918 136.8 202.745 132.262 202.745 132.262C202.745 132.262 199.023 128.775 204.95 125.277C204.95 125.27 207.646 123.727 210.865 126.569Z" fill="#E59375"/>
<path d="M237.69 144.47C237.69 144.47 236.537 146.703 239.552 146.559L242.742 144.799C242.742 144.799 243.717 144.453 243.515 143.556C243.515 143.556 243.244 143.02 242.257 143.366L237.69 144.47Z" fill="#E59375"/>
<path d="M158.587 163.404C158.587 163.404 158.723 198.933 163.41 218.584C164.107 221.509 174.811 220.614 174.811 220.614C174.811 220.614 181.796 187.013 182.685 174.381C183.19 167.241 184.618 154.745 184.618 154.745C184.618 154.745 159.559 152.259 158.587 163.404Z" fill="#F7A483"/>
<path d="M163.777 94.4667C158.313 98.4588 161.096 104.459 161.096 104.459L171.413 129.511C171.413 129.511 188.149 135.204 192.192 129.413C194.04 126.764 195.751 119.743 197.995 109.614C199.523 102.731 199.626 90.7062 195.751 87.1455C193.518 85.091 186.285 85.1324 186.231 84.8887L174.513 88.6638L163.777 94.4667Z" fill="#F7A483"/>
<path d="M185.853 127.464C186.842 127.283 192.189 129.396 192.189 129.396C192.189 129.396 196.04 145.813 196.259 148.306C196.479 150.8 179.311 163.721 160.136 156.366C160.136 156.366 169.819 133.527 171.235 128.753C172.863 123.274 185.853 127.464 185.853 127.464Z" fill="#F7A483"/>
<path d="M195.165 95.5076C195.165 95.5076 200.822 102.173 201.309 107.123C201.573 109.882 198.092 114.495 196.352 116.197C195.107 117.403 187.798 100.109 195.165 95.5076Z" fill="#6652A2"/>
<path d="M164.837 150.931C164.837 150.931 158.076 152.432 158.686 164.823C159.28 176.928 181.317 179.446 184.147 167.26C187.191 154.126 176.869 146.432 164.837 150.931Z" fill="#1F2732"/>
<path d="M174.922 76.2833C174.874 72.1036 174.981 72.3595 174.981 72.3595C175.078 71.1409 177.474 73.773 177.418 72.1815C177.191 64.8993 179.836 61.4312 180.871 60.8707C183.681 59.3499 186.645 58.9209 188.994 59.3304C192.677 59.986 192.538 64.8871 192.538 64.8871C195.675 46.9398 175.658 52.6745 175.658 52.6745C165.91 55.236 166.914 64.4216 166.914 64.4216C165.72 74.2848 175.066 79.9853 175.066 79.9853L174.922 76.2833Z" fill="#2B3B6F"/>
<path d="M175.563 74.8599C175.196 75.1314 174.747 75.2676 174.291 75.245C172.875 75.2255 171.695 73.8972 171.664 72.2862C171.632 70.6753 172.751 69.3836 174.167 69.403C174.498 69.413 174.824 69.489 175.126 69.6267C175.428 69.7644 175.699 69.9611 175.924 70.205C176.604 70.9166 176.626 72.2302 176.462 73.1295C176.336 73.8582 176.051 74.4797 175.563 74.8599Z" fill="#F8A07D"/>
<path d="M174.745 70.9044C174.662 70.0587 172.949 70.8654 173.207 71.3431C173.393 71.6064 173.626 71.8328 173.894 72.0109C174.045 72.1172 174.171 72.2556 174.262 72.4161C174.353 72.5767 174.407 72.7554 174.421 72.9394C174.421 72.9857 174.435 73.1319 174.387 73.1661C174.165 73.322 173.439 72.4958 173.278 72.3204C173.132 72.1301 173.037 71.9061 173.001 71.6692C172.966 71.4322 172.99 71.1901 173.073 70.9653C173.124 70.7627 173.248 70.5859 173.421 70.469C173.594 70.3521 173.804 70.3032 174.011 70.3317C174.396 70.3536 174.789 70.3804 174.767 70.8581C174.767 70.8581 174.75 70.9483 174.745 70.9044Z" fill="#E98B6F"/>
<path d="M174.191 71.7841C174.369 71.6062 174.54 71.7549 174.723 71.8841C174.883 72.0068 174.993 72.1849 175.03 72.3837C175.135 72.8652 175.059 73.3687 174.815 73.7972C174.717 73.9508 174.581 74.0763 174.42 74.1617C174.259 74.2471 174.079 74.2895 173.896 74.2847C173.38 74.2701 173.226 73.8167 173.207 73.3781C173.207 73.2635 173.192 72.9881 173.307 72.915C173.421 72.8419 173.519 73.0271 173.599 73.11C173.723 73.2119 173.877 73.2701 174.038 73.2757C174.183 73.2823 174.328 73.2546 174.461 73.195C174.594 73.1353 174.711 73.0452 174.803 72.9321C174.837 72.8933 174.865 72.8487 174.883 72.8004C174.883 73.0856 174.866 73.1465 174.837 72.9905C174.815 72.9195 174.782 72.8522 174.74 72.7907C174.62 72.5933 174.418 72.4568 174.286 72.2691C174.221 72.1814 174.101 71.8743 174.191 71.7817V71.7841Z" fill="#E98B6F"/>
<path d="M183.682 68.6233C183.731 69.1302 183.492 69.5689 183.149 69.5981C182.805 69.6274 182.486 69.2472 182.437 68.7402C182.388 68.2333 182.627 67.7946 182.971 67.7654C183.314 67.7361 183.634 68.1163 183.682 68.6233Z" fill="#3C2415"/>
<path d="M190.722 67.6751C190.742 68.1845 190.479 68.6061 190.13 68.6183C189.782 68.6305 189.492 68.2308 189.472 67.7214C189.453 67.2121 189.716 66.788 190.064 66.7783C190.413 66.7685 190.703 67.1658 190.722 67.6751Z" fill="#3C2415"/>
<path d="M180.647 67.9409C181.97 66.5493 185.082 66.6614 185.082 66.6614C185.082 66.6614 185.29 66.6614 185.233 66.0155C185.233 66.0155 185.219 65.455 184.77 65.5086C184.77 65.5086 180.81 65.2478 180.647 67.9409Z" fill="#2B3B6F"/>
<path d="M192.509 65.2818C191.127 64.1607 188.588 65.0381 188.588 65.0381C188.139 65.1014 188.271 65.6474 188.271 65.6474C188.383 66.2737 188.588 66.2299 188.588 66.2299C188.588 66.2299 190.689 65.5816 192.334 65.9642C192.395 65.7351 192.456 65.5085 192.509 65.2818Z" fill="#2B3B6F"/>
<path d="M189.833 75.0646L184.818 75.9932C184.554 76.0419 184.45 76.1979 184.591 76.3393C184.591 76.3393 186.034 77.7821 187.659 77.4774C189.285 77.1728 190.099 75.3084 190.099 75.3084C190.17 75.1329 190.048 75.0403 189.833 75.0646Z" fill="white"/>
<path d="M186.23 73.4756C188.857 73.2855 189.001 72.5982 189.001 72.5982L187.624 69.8271C187.624 69.8271 187.941 72.5982 186.23 73.4756Z" fill="#E98B6F"/>
<path d="M158.587 163.404C158.587 163.404 158.723 198.933 163.41 218.584C164.107 221.509 174.811 220.614 174.811 220.614C174.811 220.614 181.796 187.013 182.685 174.381C183.19 167.241 184.618 154.745 184.618 154.745C184.618 154.745 159.559 152.259 158.587 163.404Z" fill="#1F2732"/>
<path d="M192.716 130.088C192.716 130.088 197.917 152.103 197.22 154.516C195.209 161.445 176.548 171.164 159.532 156.99C159.532 156.99 163.431 140.707 171.498 126.935C171.498 126.925 174.467 129.991 192.716 130.088Z" fill="#1F2732"/>
<path d="M169.626 130.023C169.626 130.023 188.67 135.891 192.718 130.088C194.568 127.439 198.64 114.198 199.912 105.734C196.873 98.5149 190.066 85.3542 190.066 85.3542C189.264 85.186 188.449 85.0873 187.629 85.0593C190.081 94.2645 186.749 96.4336 186.749 96.4336C176.608 96.7211 174.118 88.6517 174.118 88.6517L171.68 90.1944C171.68 90.1944 179.236 105.882 164.654 113.057C164.637 113.057 164.288 129.901 169.626 130.023Z" fill="#6652A2"/>
<path d="M175.629 75.1547C175.629 75.3262 175.578 75.4937 175.482 75.6361C175.386 75.7785 175.251 75.8893 175.092 75.9546C174.933 76.0199 174.759 76.0367 174.591 76.0029C174.423 75.9692 174.268 75.8864 174.147 75.7649C174.026 75.6435 173.944 75.4889 173.911 75.3207C173.877 75.1524 173.895 74.9781 173.96 74.8197C174.026 74.6613 174.137 74.526 174.28 74.4307C174.423 74.3355 174.59 74.2847 174.762 74.2847C174.876 74.2843 174.989 74.3067 175.095 74.3503C175.2 74.3939 175.296 74.4581 175.377 74.5389C175.457 74.6198 175.521 74.7159 175.565 74.8216C175.608 74.9273 175.63 75.0405 175.629 75.1547Z" fill="white"/>
<path d="M171.947 96.7554C172.652 97.5038 173.202 98.3839 173.567 99.3452C173.931 100.307 174.103 101.33 174.071 102.358C174.04 103.386 173.806 104.397 173.383 105.334C172.961 106.271 172.358 107.116 171.608 107.82C168.46 110.784 158.562 116.433 158.47 112.109C158.287 103.614 158.621 98.9975 161.769 96.0364C164.918 93.0752 168.986 93.6041 171.947 96.7554Z" fill="#F7A483"/>
<path d="M172.307 103.938L165.468 99.9943L158.586 104.296C158.586 104.296 154.562 129.932 156.044 135.799C157.623 142.052 160.494 137.446 161.854 135.735C161.854 135.735 173.075 108.919 172.307 103.938Z" fill="#F7A483"/>
<path d="M157.083 138.302C157.083 138.302 169.386 147.075 180.302 151.864C180.302 151.864 183.911 150.351 182.105 148.696C179.044 145.864 165.652 133.04 162.562 130.205C157.083 128.321 157.083 138.302 157.083 138.302Z" fill="#F7A483"/>
<path d="M186.528 156.77C182.076 154.845 181.632 154.141 180.791 153.134C177.167 148.806 183.716 148.399 185.405 148.635C186.38 148.772 186.623 151.016 189.792 153.509C189.792 153.509 194.627 155.798 195.746 155.513C195.746 155.513 196.942 155.581 197.015 156.434C197.006 156.439 193.927 158.625 186.528 156.77Z" fill="#F7A483"/>
<path d="M185.198 148.582C185.198 148.582 183.29 150.222 186.139 151.219L189.758 150.782C189.758 150.782 190.779 150.824 190.938 149.92C190.938 149.92 190.889 149.32 189.843 149.271L185.198 148.582Z" fill="#F7A483"/>
<path d="M262.275 180.477L262.114 180.443C262.034 180.423 261.951 180.404 261.87 180.389L261.69 180.357C261.632 180.357 261.576 180.335 261.517 180.328L261.393 194.33L238.208 209.971L238.354 193.267L257.562 180.309C257.279 180.34 256.996 180.382 256.709 180.428L256.523 180.46L256.197 180.518L255.975 180.562L255.656 180.63L255.456 180.674L254.951 180.794L254.817 180.828C254.61 180.881 254.403 180.94 254.196 181.001L254.086 181.032C253.801 181.118 253.516 181.208 253.231 181.305L253.201 181.317C252.914 181.415 252.631 181.52 252.348 181.629L252.287 181.651C251.968 181.778 251.651 181.912 251.339 182.054L251.296 182.073C250.979 182.214 250.667 182.365 250.36 182.524L250.33 182.541C250.018 182.699 249.714 182.87 249.417 183.045H249.399C249.097 183.223 248.8 183.411 248.515 183.604C245.956 185.331 244.615 187.259 244.593 188.921C244.642 183.352 244.692 177.783 244.742 172.215C244.742 170.562 246.102 168.625 248.661 166.897C248.949 166.702 249.243 166.517 249.546 166.336H249.563C249.863 166.158 250.165 165.99 250.477 165.829L250.508 165.815C250.813 165.656 251.125 165.505 251.439 165.361L251.488 165.342C251.798 165.201 252.112 165.069 252.431 164.942H252.451L252.504 164.923C252.78 164.815 253.06 164.713 253.34 164.616L253.379 164.601C253.662 164.506 253.942 164.418 254.225 164.333L254.301 164.309H254.347C254.554 164.248 254.759 164.192 254.963 164.138L255.102 164.104C255.268 164.062 255.434 164.021 255.59 163.984L255.69 163.96L255.802 163.938L256.107 163.872L256.35 163.828C256.453 163.806 256.555 163.789 256.66 163.77L256.823 163.741H256.862C257.147 163.694 257.43 163.655 257.713 163.621H257.786H257.839C258.086 163.592 258.33 163.57 258.57 163.555H258.634H258.714C258.943 163.541 259.168 163.531 259.392 163.526H259.411C259.621 163.526 259.828 163.526 260.035 163.526H260.118H260.189C260.396 163.526 260.601 163.543 260.8 163.56H260.82H260.866C261.073 163.577 261.278 163.602 261.478 163.629C261.501 163.627 261.524 163.627 261.546 163.629H261.593L261.836 163.67C261.9 163.67 261.963 163.69 262.026 163.704C262.09 163.719 262.18 163.733 262.255 163.753C262.331 163.772 262.363 163.772 262.414 163.787H262.433C262.614 163.831 262.787 163.88 262.957 163.933L263.074 163.972C263.247 164.028 263.413 164.089 263.562 164.155C263.71 164.221 263.806 164.272 263.925 164.333L264.025 164.389C264.064 164.413 264.108 164.435 264.147 164.457L264.242 164.521L264.364 164.599C264.427 164.642 264.488 164.686 264.544 164.73C264.6 164.774 264.615 164.781 264.646 164.808L264.68 164.835C264.751 164.891 264.814 164.952 264.875 165.01L264.902 165.035C264.951 165.081 264.997 165.13 265.041 165.179L265.083 165.225L265.146 165.298C265.19 165.349 265.231 165.403 265.27 165.456L265.326 165.53L265.353 165.569C265.373 165.595 265.39 165.625 265.407 165.651C265.424 165.678 265.475 165.754 265.507 165.807C265.538 165.861 265.553 165.885 265.575 165.924L265.663 166.083C265.671 166.1 265.68 166.116 265.689 166.132L265.714 166.185C265.76 166.28 265.806 166.373 265.848 166.468L265.87 166.514C265.926 166.641 265.982 166.77 266.036 166.899L266.145 167.143L266.196 167.255C266.245 167.365 266.296 167.477 266.35 167.584L266.438 167.745L266.486 167.835C266.535 167.918 266.584 168.001 266.64 168.079C266.696 168.157 266.713 168.184 266.75 168.235C266.786 168.286 266.857 168.381 266.915 168.452L266.988 168.547C267.066 168.644 267.149 168.739 267.232 168.834L267.247 168.851C267.337 168.949 267.434 169.046 267.532 169.141C267.561 169.171 267.593 169.197 267.622 169.222C267.695 169.293 267.768 169.358 267.846 169.424L267.961 169.519C268.039 169.585 268.119 169.646 268.205 169.709L268.314 169.79C268.436 169.875 268.558 169.96 268.692 170.033L268.716 170.046L268.755 170.068L268.78 170.08L268.836 170.111L268.875 170.131L268.943 170.165L268.989 170.189L269.067 170.226L269.131 170.258L269.214 170.299L269.311 170.345L269.372 170.375L269.489 170.428L269.552 170.457L269.74 170.543C270.179 170.738 270.695 170.952 271.178 171.113L294.385 155.452L294.238 172.159L271.032 187.82C270.544 187.659 270.032 187.447 269.594 187.25L269.404 187.164L269.372 187.15L269.226 187.081C269.207 187.074 269.189 187.065 269.172 187.055L269.065 187.006L268.999 186.974L268.919 186.935L268.867 186.911L268.792 186.872L268.753 186.852L268.687 186.818L268.658 186.801L268.604 186.774L268.585 186.762C268.574 186.757 268.563 186.75 268.553 186.743C268.422 186.662 268.297 186.577 268.178 186.499L268.061 186.414C267.98 186.353 267.9 186.292 267.817 186.228L267.756 186.18L267.7 186.131C267.625 186.068 267.551 186.002 267.481 185.936L267.388 185.848C267.288 185.753 267.193 185.656 267.105 185.561L267.086 185.539C267.001 185.446 266.92 185.351 266.842 185.258L266.769 185.163C266.711 185.09 266.655 185.017 266.601 184.942C266.589 184.925 266.574 184.907 266.562 184.888L266.494 184.788C266.438 184.708 266.389 184.627 266.34 184.544C266.318 184.508 266.299 184.469 266.277 184.43C266.255 184.391 266.228 184.344 266.209 184.303C266.15 184.193 266.099 184.081 266.048 183.969C266.036 183.937 266.021 183.908 266.009 183.877L265.877 183.577C265.828 183.465 265.78 183.348 265.728 183.233L265.699 183.17C265.658 183.08 265.616 182.992 265.572 182.902C265.553 182.868 265.536 182.829 265.516 182.794C265.497 182.76 265.46 182.69 265.431 182.638C265.402 182.587 265.387 182.558 265.363 182.519C265.338 182.48 265.297 182.414 265.263 182.363L265.182 182.244L265.126 182.168C265.085 182.114 265.046 182.063 265.002 182.012L264.936 181.937C264.88 181.873 264.819 181.81 264.758 181.746L264.732 181.722C264.661 181.654 264.583 181.588 264.503 181.52L264.4 181.444C264.344 181.398 264.283 181.356 264.22 181.313L264.098 181.232C264.03 181.188 263.957 181.144 263.881 181.103L263.779 181.047C263.667 180.986 263.535 180.925 263.418 180.869C263.301 180.813 263.091 180.742 262.931 180.684C262.892 180.684 262.853 180.657 262.811 180.647C262.631 180.569 262.455 180.521 262.275 180.477Z" fill="#0093C6"/>
<path d="M166.367 179.746L166.514 163.036L196.269 175.556L196.147 189.463H196.176L196.369 189.484C196.613 189.511 196.844 189.536 197.076 189.555H197.146C197.319 189.57 197.488 189.579 197.658 189.589H197.848L198.231 189.606H198.384C198.682 189.606 198.977 189.618 199.267 189.606H199.359C199.603 189.606 199.847 189.592 200.071 189.577H200.125C200.341 189.562 200.554 189.543 200.761 189.521L200.919 189.501C201.095 189.482 201.27 189.458 201.441 189.431H201.504C201.689 189.399 201.867 189.365 202.043 189.326L202.177 189.294C202.339 189.259 202.502 189.217 202.664 189.17L202.732 189.153L202.827 189.121L203.071 189.041L203.195 188.995C203.266 188.968 203.337 188.943 203.405 188.914L203.52 188.865L203.717 188.778L203.824 188.726L204.019 188.624L204.107 188.575C204.197 188.522 204.285 188.468 204.368 188.412C205.484 187.659 205.652 186.691 205.681 185.69V184.876C205.681 184.05 205.745 183.233 206.288 182.517C207 181.85 207.778 181.259 208.611 180.752L238.354 193.267L238.208 209.974L208.489 197.471C207.656 197.977 206.877 198.567 206.166 199.233C205.679 199.879 205.581 200.603 205.562 201.341V202.153C205.562 203.245 205.457 204.312 204.243 205.131C204.16 205.187 204.075 205.241 203.985 205.292L203.895 205.341L203.702 205.443L203.593 205.497L203.398 205.584L203.283 205.633L203.22 205.66L203.071 205.711L202.949 205.757L202.706 205.838L202.601 205.872H202.584H202.54C202.384 205.918 202.218 205.96 202.052 205.999L201.982 206.018H201.923C201.745 206.055 201.565 206.091 201.38 206.123H201.368C201.355 206.122 201.341 206.122 201.329 206.123C201.153 206.15 200.973 206.174 200.79 206.196H200.714H200.641C200.432 206.22 200.22 206.237 200.003 206.252H199.944C199.701 206.267 199.474 206.276 199.233 206.284H199.116C198.828 206.284 198.533 206.284 198.233 206.284H198.09C197.965 206.284 197.846 206.284 197.712 206.267C197.646 206.267 197.583 206.267 197.519 206.267C197.339 206.267 197.156 206.245 196.973 206.228H196.922C196.678 206.208 196.449 206.184 196.21 206.16L196.023 206.138C195.813 206.111 195.601 206.084 195.387 206.052H195.309H195.282L194.69 205.96L194.587 205.94L194.088 205.85L193.866 205.804C193.739 205.779 193.622 205.755 193.486 205.726L193.242 205.67L192.884 205.589L192.789 205.567L192.708 205.548C192.387 205.47 192.062 205.384 191.733 205.304L191.607 205.27C191.28 205.175 190.954 205.077 190.632 204.973L190.532 204.941C190.198 204.829 189.867 204.717 189.535 204.595C189.516 204.586 189.497 204.579 189.477 204.573C189.135 204.444 188.794 204.31 188.46 204.168C188.295 204.1 188.134 204.027 187.973 203.959C187.745 203.86 187.526 203.757 187.315 203.652L187.098 203.544C186.957 203.474 186.82 203.406 186.686 203.335L186.442 203.208L186.079 203.008L185.857 202.879L185.723 202.799C185.648 202.755 185.577 202.708 185.504 202.662L185.311 202.545L184.929 202.301L184.807 202.219C184.646 202.104 184.49 201.992 184.342 201.877L184.249 201.797L183.988 201.59L183.942 201.548C183.835 201.456 183.732 201.366 183.632 201.273L183.496 201.149C183.357 201.015 183.223 200.883 183.101 200.749C182.994 200.632 182.894 200.505 182.801 200.398C182.77 200.359 182.745 200.322 182.716 200.286C182.687 200.249 182.614 200.157 182.57 200.093L182.536 200.04L182.472 199.942C182.419 199.862 182.367 199.779 182.321 199.699C182.304 199.662 182.282 199.63 182.265 199.596L182.233 199.538C182.189 199.452 182.15 199.367 182.114 199.279C182.107 199.266 182.101 199.252 182.097 199.238C182.072 199.177 182.048 199.119 182.029 199.06C182.009 199.002 182.004 198.984 181.995 198.945C181.985 198.907 181.982 198.909 181.977 198.889C181.954 198.809 181.934 198.728 181.919 198.646V198.595V198.541C181.906 198.446 181.9 198.35 181.899 198.253V198.224C181.934 194.26 181.969 190.295 182.004 186.331L166.367 179.746Z" fill="#3DAFE4"/>
<path d="M294.389 155.452L222.554 125.231L166.514 163.046L196.269 175.566C195.643 176.064 194.972 176.503 194.263 176.875C193.083 177.369 191.849 177.724 190.586 177.932C188.083 178.395 185.012 178.32 183.228 179.521C180.44 181.403 182.636 184.82 188.122 187.264C188.28 187.337 188.444 187.406 188.609 187.476C194.458 189.933 201.509 190.357 204.378 188.419C206.708 186.847 204.914 184.352 206.305 182.524C207.017 181.858 207.795 181.266 208.628 180.759L238.354 193.267L261.541 177.623L261.242 177.486C260.247 177.053 259.229 176.68 258.19 176.368C254.732 175.61 250.057 176.531 247.069 175.273C243.414 173.643 244.145 169.946 248.661 166.907C253.216 163.833 259.889 162.595 263.567 164.14C265.848 165.157 265.76 166.758 266.645 168.071C267.183 168.865 267.883 169.534 268.699 170.036C268.809 170.102 269.223 170.309 269.747 170.545C270.186 170.74 270.703 170.955 271.185 171.116L294.389 155.452Z" fill="#80BBE6"/>
<path d="M228.669 223.471C228.669 223.512 228.669 223.551 228.669 223.595C228.669 223.639 228.669 223.683 228.669 223.726C228.669 223.77 228.669 223.797 228.657 223.834L228.643 223.96C228.643 224.002 228.625 224.043 228.618 224.085C228.611 224.126 228.618 224.146 228.599 224.177C228.579 224.209 228.577 224.263 228.565 224.302C228.552 224.341 228.547 224.36 228.538 224.392C228.533 224.409 228.526 224.425 228.518 224.441C228.48 224.558 228.432 224.672 228.377 224.782C228.322 224.889 228.259 224.993 228.189 225.091C228.18 225.109 228.169 225.126 228.157 225.142C228.081 225.242 228 225.337 227.914 225.428C227.892 225.454 227.867 225.479 227.843 225.503C227.819 225.528 227.789 225.562 227.763 225.586L227.665 225.676L227.575 225.757L227.49 225.827L227.326 225.952L227.236 226.013C227.178 226.054 227.114 226.095 227.049 226.134L226.963 226.188C226.91 226.222 226.851 226.251 226.79 226.283L226.693 226.339C226.6 226.383 226.505 226.432 226.405 226.476C226.016 226.637 225.614 226.766 225.204 226.863C224.87 226.944 224.526 227.009 224.17 227.061C223.814 227.112 223.488 227.146 223.137 227.175C222.65 227.214 222.151 227.239 221.641 227.251C220.534 227.285 219.396 227.273 218.292 227.302C217.804 227.319 217.317 227.341 216.83 227.377L216.978 244.362C217.466 244.323 217.953 244.298 218.441 244.286C219.545 244.255 220.68 244.264 221.789 244.233C222.294 244.233 222.793 244.196 223.283 244.157C223.637 244.128 223.98 244.089 224.317 244.043C224.653 243.996 225.016 243.926 225.35 243.845C225.76 243.749 226.162 243.619 226.551 243.458C226.651 243.414 226.749 243.368 226.841 243.319L226.922 243.275C226.988 243.241 227.051 243.204 227.114 243.168H227.134L227.188 243.131C227.256 243.092 227.322 243.048 227.385 243.007L227.473 242.944L227.636 242.819C227.653 242.805 227.67 242.795 227.685 242.78L227.724 242.749L227.811 242.668L227.909 242.578L227.989 242.498L228.041 242.444L228.06 242.42C228.148 242.329 228.229 242.233 228.304 242.132L228.318 242.115L228.338 242.083C228.406 241.983 228.469 241.879 228.526 241.771C228.581 241.659 228.629 241.544 228.669 241.425C228.671 241.416 228.671 241.407 228.669 241.398C228.67 241.392 228.67 241.385 228.669 241.379C228.681 241.346 228.691 241.313 228.699 241.279C228.711 241.242 228.72 241.206 228.73 241.167L228.752 241.064C228.752 241.038 228.752 241.008 228.769 240.982C228.786 240.955 228.769 240.96 228.769 240.95C228.769 240.94 228.769 240.86 228.786 240.813C228.803 240.767 228.786 240.748 228.786 240.716V240.562C228.786 240.538 228.786 240.514 228.786 240.492V240.458L228.669 223.471Z" fill="#7C294B"/>
<path d="M214.978 227.648H214.958C213.91 227.965 212.881 228.344 211.878 228.781C211.77 228.828 211.668 228.874 211.573 228.923L211.722 245.902C211.819 245.856 211.919 245.81 212.026 245.763C213.031 245.327 214.059 244.949 215.107 244.63H215.124C215.392 244.572 215.667 244.523 215.945 244.481C216.282 244.435 216.623 244.396 216.971 244.369L216.823 227.387C216.474 227.416 216.13 227.453 215.797 227.502C215.516 227.541 215.243 227.592 214.978 227.648Z" fill="#7C294B"/>
<path d="M235.286 261.81L235.135 244.825L204.895 257.552L205.019 271.687C201.507 272.109 198.351 271.78 196.647 270.63C195.514 269.864 195.343 268.887 195.314 267.868V267.028C195.314 266.192 195.248 265.363 194.697 264.637C193.973 263.962 193.182 263.361 192.338 262.843L162.13 275.553L162.278 292.537L192.487 279.825C193.332 280.342 194.122 280.943 194.846 281.619C195.334 282.27 195.438 283.001 195.458 283.749V284.59C195.458 285.699 195.567 286.783 196.798 287.612C199.723 289.581 206.888 289.15 212.823 286.652C212.991 286.581 213.156 286.51 213.31 286.437C217.258 284.678 219.53 282.423 219.515 280.588C219.479 276.557 219.444 272.528 219.408 268.502L235.286 261.81Z" fill="#A1426F"/>
<path d="M226.412 226.483L226.561 243.465C223.393 244.796 218.647 243.86 215.133 244.63C214.079 244.948 213.045 245.328 212.035 245.768C211.928 245.815 211.828 245.861 211.731 245.907L211.582 228.928C211.677 228.879 211.779 228.832 211.887 228.786C212.897 228.347 213.932 227.967 214.987 227.648C218.487 226.878 223.244 227.814 226.412 226.483Z" fill="#7C294B"/>
<path d="M162.122 275.548L105.161 237.114L105.31 254.096L162.271 292.53L162.122 275.548Z" fill="#7C294B"/>
<path d="M218.143 261.581C216.332 260.362 213.208 260.435 210.666 259.967C209.382 259.752 208.129 259.387 206.932 258.878C206.213 258.501 205.53 258.057 204.894 257.552L235.135 244.825L211.572 228.927C211.667 228.879 211.77 228.832 211.877 228.786C212.887 228.347 213.923 227.967 214.977 227.648C218.486 226.878 223.241 227.814 226.402 226.483C230 224.879 229.242 221.121 224.66 218.033C220.029 214.906 213.247 213.646 209.398 215.272C207.193 216.247 207.28 217.882 206.384 219.215C205.836 220.022 205.123 220.703 204.292 221.214C204.183 221.28 203.756 221.494 203.22 221.733C202.777 221.933 202.245 222.147 201.758 222.311L178.166 206.391L105.161 237.116L162.122 275.548L192.331 262.838C193.175 263.356 193.965 263.957 194.69 264.632C196.101 266.491 194.281 269.019 196.64 270.625C199.564 272.592 206.732 272.16 212.667 269.665C212.835 269.596 212.998 269.523 213.154 269.453C218.745 266.964 220.977 263.494 218.143 261.581Z" fill="#CC4E7E"/>
<path d="M369.407 326.677C369.407 336.762 387.779 344.934 410.44 344.934C433.1 344.934 451.472 336.762 451.472 326.677C451.472 316.592 433.1 308.42 410.44 308.42C387.779 308.42 369.407 316.587 369.407 326.677Z" fill="#9EABD3"/>
<path d="M396.616 322.583C393.718 325.507 388.941 327.057 388.941 327.062C384.913 328.083 382.544 325.405 382.544 325.405C381.678 324.186 382.729 323.531 382.729 323.531C391.222 317.072 393.764 315.244 393.764 315.244H401.563C401.946 318.381 401.734 319.631 401.734 319.631C400.692 321.011 399.161 321.939 397.457 322.224C397.296 322.251 396.996 322.015 396.845 322.078L396.616 322.583Z" fill="#17181C"/>
<path d="M382.694 323.558C382.726 323.742 382.78 323.921 382.857 324.091C383.517 325.503 385.35 326.087 386.805 326.066C388.55 326.041 390.137 325.188 391.66 324.418C393.098 323.663 394.446 322.748 395.679 321.691C396.559 320.96 397.68 320.621 398.72 320.17C399.89 319.658 400.772 318.864 401.786 318.103C401.786 318.944 401.733 319.641 401.733 319.641C400.691 321.021 399.16 321.949 397.456 322.234C397.295 322.261 396.995 322.025 396.844 322.088L396.617 322.575C393.719 325.5 388.942 327.05 388.942 327.055C384.914 328.076 382.545 325.398 382.545 325.398C381.775 324.33 382.518 323.687 382.694 323.558Z" fill="black"/>
<path d="M402.422 252.002C393.751 261.576 390.314 251.449 390.314 251.449L389.242 192.609C389.127 193.484 388.84 186.674 399.788 188.149C410.735 189.623 413.465 193.874 413.465 193.874C413.465 193.874 407.46 234.516 402.422 252.002Z" fill="#E59375"/>
<path d="M390.261 250.713C390.261 250.713 394.648 312.681 395.018 314.854C395.018 314.854 400.38 316.039 400.38 314.806C400.441 311.837 406.548 275.567 406.626 270.91C406.826 259.102 403.782 256.869 400.745 248.915C400.755 248.915 390.239 241.14 390.261 250.713Z" fill="#E59375"/>
<path d="M405.032 254.237C410.07 236.751 413.464 193.881 413.464 193.881C413.464 193.881 410.701 189.626 399.787 188.156C388.874 186.687 389.127 193.491 389.242 192.616C389.242 192.616 385.925 224.524 388.961 253.523C388.971 253.523 398.313 258.488 405.032 254.237Z" fill="#104473"/>
<path d="M421.577 161.053C423.125 166.561 429.508 187.571 429.508 187.571C406.654 214.911 389.438 190.983 389.212 188.495C388.939 185.509 392.27 174.116 392.867 161.818C392.87 161.828 399.107 152.225 421.577 161.053Z" fill="#F7A483"/>
<path d="M389.343 195.338C388.261 187.973 390.506 180.547 391.661 173.104H425.138C427.28 180.24 429.508 187.571 429.508 187.571C429.508 187.571 430.938 204.451 416.603 206.474C416.603 206.474 391.62 210.814 389.343 195.338Z" fill="#104473"/>
<path d="M427.427 253.299C420.269 264.049 415.371 254.545 415.371 254.545L403.76 197.222C403.78 198.107 404.109 189.757 415.154 189.594C426.199 189.431 429.533 193.228 429.533 193.228C429.533 193.228 429.823 235.259 427.432 253.299" fill="#F7A483"/>
<path d="M415.205 253.816C415.205 253.816 426.701 319.117 427.379 321.213C427.379 321.213 432.843 321.591 432.684 320.37C432.304 317.423 433.289 276.257 432.684 271.627C431.132 259.928 429.516 257.905 425.327 250.487C425.319 250.484 413.767 244.352 415.205 253.816Z" fill="#F7A483"/>
<path d="M426.857 319.951L423.623 329.814C423.623 329.814 424.291 338.641 431.37 333.17L433.479 331.127C433.788 330.868 434.022 330.529 434.156 330.148C434.289 329.767 434.318 329.357 434.239 328.961L433.61 325.181L432.86 319.951C432.86 319.951 428.424 316.941 426.857 319.951Z" fill="#17181C"/>
<path d="M431.377 331.91L433.485 329.867C433.841 329.577 434.097 329.182 434.216 328.739L434.253 328.961C434.332 329.357 434.303 329.767 434.169 330.148C434.036 330.53 433.802 330.868 433.492 331.127L431.377 333.16C424.309 338.631 423.629 329.804 423.629 329.804L423.753 329.419C424.146 331.513 425.706 336.287 431.377 331.91Z" fill="black"/>
<path d="M413.954 256.126C409.92 244.291 402.309 195.339 402.309 195.339C402.326 196.221 404.588 183.64 415.633 183.484C426.678 183.328 429.508 187.571 429.508 187.571C429.508 187.571 432.956 235.483 430.566 253.523C430.566 253.523 422.808 262.482 413.954 256.126Z" fill="#065099"/>
<path d="M394.577 123.396C394.577 123.396 375.876 145.389 366.579 152.674C366.579 152.674 360.33 150.366 360.522 146.118C360.522 146.118 374.212 125.865 382.808 113.884C382.803 113.884 394.426 110.537 394.577 123.396Z" fill="#E59375"/>
<path d="M363.225 144.28C363.225 144.28 342.804 156.166 334.35 160.141C334.35 160.141 332.831 162.517 335.28 162.741C339.372 163.117 367.826 153.48 368.521 151.243C371.762 140.814 363.225 144.28 363.225 144.28Z" fill="#E59375"/>
<path d="M381.879 120.942C382.58 122.828 383.998 124.36 385.824 125.204C387.651 126.049 389.737 126.137 391.628 125.45C392.557 125.105 393.409 124.579 394.135 123.903C394.86 123.227 395.445 122.414 395.855 121.511C396.265 120.608 396.492 119.633 396.524 118.642C396.555 117.651 396.391 116.663 396.039 115.736C395.338 113.85 393.92 112.317 392.094 111.472C390.267 110.628 388.181 110.54 386.29 111.227C385.361 111.573 384.509 112.098 383.783 112.774C383.058 113.451 382.473 114.263 382.063 115.166C381.653 116.069 381.426 117.045 381.394 118.036C381.362 119.027 381.527 120.014 381.879 120.942Z" fill="#E59375"/>
<path d="M391.215 110.808C391.215 110.808 384.549 108.471 379.967 115.012L363.656 138.675C363.656 138.675 367.019 146.208 374.957 150.319C374.957 150.317 404.159 123.423 391.215 110.808Z" fill="#872952"/>
<path d="M410.11 102.863C410.11 102.863 411.458 100.275 414.427 95.3077C414.427 95.3077 420.746 88.8176 417.207 80.6604C417.207 80.6604 415.258 73.8363 403.335 74.8307C403.335 74.8209 402.192 93.6017 410.11 102.863Z" fill="#F8A07D"/>
<path d="M410.585 92.2344C410.585 92.2344 408.579 110.944 412.858 112.36L397.597 111.451C397.597 111.451 399.995 105.797 397.207 101.627L410.585 92.2344Z" fill="#F7A483"/>
<path d="M398.434 108.183C398.69 103.908 398.152 103.041 397.216 101.627L410.593 92.2344C410.593 92.2344 409.948 98.2785 410.172 103.757C406.289 107.423 403.089 108.286 398.434 108.183Z" fill="#E1876F"/>
<path d="M386.834 110.771C383.436 113.252 383.044 119.189 384.26 122.899C385.652 127.159 386.21 132.594 387.599 138.752C389.488 147.1 390.767 153.529 392.875 161.818C394.62 168.673 422.168 163.151 422.168 163.151L432.041 129.413C432.041 129.413 433.747 120.603 425.762 117.673C425.762 117.673 417.357 113.135 411.203 111.049C405.768 109.209 403.801 109.039 398.223 109.38C398.232 109.377 390.748 109.653 386.834 110.771Z" fill="#F7A483"/>
<path d="M391.742 76.2466C390.955 79.8365 390.063 81.7107 391.055 85.0033C391.947 87.9571 391.74 91.0621 393.029 93.9282C394.871 98.0129 397.265 97.4791 399.097 93.721C400.971 89.8727 402.926 84.6767 398.693 81.8252C395.975 79.9949 394.996 76.8486 391.742 76.2466Z" fill="#271000"/>
<path d="M394.089 104.293L393.456 102.178C393.456 102.178 391.85 94.3572 391.85 94.3547C391.665 93.2741 391.708 92.167 391.974 91.1035C392.244 90.0409 392.461 88.9247 392.252 87.7671C391.277 82.1616 394.34 79.237 394.34 79.237C397.838 74.2701 405.507 74.66 405.507 74.66C414.973 75.6056 415.31 84.8279 415.31 84.8279C416.545 91.0109 411.43 95.8536 411.41 95.8633C411.001 96.2484 411.098 98.2688 410.955 98.8367C410.331 101.249 407.923 102.629 405.805 103.557C403.477 104.576 400.67 105.644 398.12 105.751C397.17 105.787 394.465 105.507 394.089 104.293Z" fill="#F8A07D"/>
<path d="M392.052 94.211C393.295 95.3321 394.977 94.8203 396.312 95.6343C397.178 96.1631 397.609 96.1217 398.557 95.8536C399.26 95.6553 400.008 95.68 400.697 95.9243C401.487 96.1534 402.92 96.8407 403.685 97.1429C404.857 97.6157 406.171 97.467 407.08 96.3581C408.033 95.198 408.393 94.9592 408.842 93.57C409.663 91.011 412.254 90.8574 414.031 92.2929C413.34 93.5993 412.465 94.7986 411.43 95.8536C411.021 96.2387 411.118 99.9285 410.974 100.496C410.351 102.909 407.943 104.289 405.825 105.217C403.497 106.236 399.946 106.377 397.395 106.482C396.42 106.523 394.47 105.507 394.1 104.289L393.466 102.173C393.466 102.173 391.86 94.3523 391.86 94.3499C391.831 94.2134 391.821 94.0623 391.804 93.9161C391.878 94.021 391.962 94.1196 392.052 94.211Z" fill="#271000"/>
<path d="M391.878 79.5829C394.023 79.5829 393.996 81.3767 395.639 82.3759C399.158 84.5182 404.62 81.3791 407.454 84.8496C407.734 85.1909 407.978 85.5591 408.185 85.9488C409.021 87.5135 409.272 89.4023 409.538 91.1375C409.618 91.6493 409.238 92.9556 409.703 93.348C409.969 93.5747 410.435 93.5064 410.922 93.348C411.017 94.1328 410.386 94.7348 410.115 95.4537C409.845 96.1727 409.421 96.7917 409.803 97.5229C410.793 99.3995 410.047 99.09 410.123 102.86C410.734 101.968 412.241 100.881 412.716 100.465C414.093 99.2655 415.397 97.9591 416.372 96.4115C417.346 94.8639 417.97 93.1994 418.597 91.525C419.62 88.7808 420.213 85.8123 419.389 82.934C419.389 82.934 418.743 76.2465 413.147 75.5275C413.147 75.5275 413.859 71.221 403.642 70.0804C403.642 70.0804 395.568 70.2072 395.112 67.4215C395.112 67.4215 393.479 68.8156 393.894 70.97C393.894 70.97 390.574 71.9814 389.08 68.1819C389.068 68.1843 386.302 78.1913 391.878 79.5829Z" fill="#271000"/>
<path d="M409.967 97.4376C410.229 97.7814 410.614 98.0103 411.042 98.0762C412.314 98.3199 413.588 97.1257 413.888 95.4294C414.188 93.7331 413.401 92.1733 412.131 91.9418C411.825 91.8953 411.513 91.9188 411.217 92.0104C410.922 92.102 410.651 92.2594 410.425 92.4707C409.694 93.097 409.45 94.4765 409.45 95.4611C409.443 96.2483 409.592 96.9526 409.967 97.4376Z" fill="#F8A07D"/>
<path d="M411.34 93.4456C411.537 92.5585 413.253 93.6357 412.916 94.1085C412.685 94.3649 412.409 94.5756 412.1 94.73C411.927 94.8238 411.777 94.9546 411.66 95.1129C411.544 95.2713 411.463 95.4534 411.425 95.6463C411.41 95.6975 411.383 95.8511 411.425 95.8901C411.642 96.0826 412.517 95.2978 412.712 95.1321C412.891 94.9492 413.021 94.7238 413.089 94.4769C413.157 94.2301 413.162 93.97 413.102 93.721C413.073 93.4983 412.964 93.2939 412.795 93.1469C412.625 92.9998 412.407 92.9205 412.183 92.9241C411.773 92.8997 411.354 92.8777 411.318 93.3895C411.318 93.3895 411.318 93.487 411.335 93.4407L411.34 93.4456Z" fill="#E98B6F"/>
<path d="M411.809 94.4498C411.641 94.2354 411.444 94.3718 411.232 94.4888C411.045 94.5971 410.906 94.7709 410.842 94.9763C410.666 95.4745 410.683 96.0201 410.888 96.5068C410.974 96.6821 411.102 96.8328 411.262 96.9445C411.422 97.0562 411.608 97.1253 411.802 97.1453C412.35 97.1941 412.572 96.7286 412.65 96.268C412.67 96.1461 412.716 95.8512 412.604 95.761C412.492 95.6709 412.36 95.8536 412.267 95.9316C412.123 96.0246 411.951 96.0666 411.78 96.0511C411.624 96.0401 411.473 95.9925 411.338 95.912C411.204 95.8316 411.091 95.7205 411.007 95.588C410.978 95.5423 410.955 95.4921 410.942 95.4393C410.905 95.7415 410.912 95.8122 410.966 95.6489C410.999 95.5753 411.042 95.5071 411.095 95.4466C411.246 95.2517 411.48 95.1322 411.644 94.9592C411.722 94.8763 411.887 94.5644 411.807 94.4571L411.809 94.4498Z" fill="#E98B6F"/>
<path d="M396.82 93.7455L399.401 94.7399C399.401 94.7399 395.921 94.9568 395.787 93.9454C395.787 93.9454 396.314 91.9737 396.884 90.1044C396.884 90.1044 396.438 93.5871 396.82 93.7455Z" fill="#E98B6F"/>
<path d="M401.323 90.1043C401.323 90.6502 401.625 91.0791 401.995 91.0791C402.366 91.0791 402.663 90.6404 402.663 90.1043C402.663 89.5681 402.363 89.1294 401.995 89.1294C401.627 89.1294 401.323 89.5583 401.323 90.1043Z" fill="#271000"/>
<path d="M393.882 89.2756C393.882 89.824 394.184 90.2627 394.554 90.2627C394.925 90.2627 395.222 89.824 395.222 89.2756C395.222 88.7273 394.922 88.3008 394.554 88.3008C394.186 88.3008 393.882 88.7322 393.882 89.2756Z" fill="#271000"/>
<path d="M400.625 88.1912C400.381 88.2399 400.325 87.9158 400.325 87.9158C400.28 87.725 400.286 87.5259 400.342 87.3382C400.397 87.2084 400.499 87.1041 400.627 87.0457C401.251 86.9604 402.455 87.114 403.479 87.4186C404.044 87.5868 404.961 88.0084 405.022 88.5299C405.039 88.6859 405.053 88.954 404.875 89.0027C403.487 88.6008 402.064 88.3291 400.625 88.1912Z" fill="#271000"/>
<path d="M392.166 87.343C393.282 87.3665 394.395 87.4822 395.493 87.6891C395.709 87.8036 395.853 87.5088 395.856 87.5088C395.95 87.337 395.998 87.144 395.997 86.9482C395.978 86.8083 395.908 86.6804 395.8 86.5899C395.014 86.2916 394.175 86.1604 393.336 86.2049C392.917 86.2064 392.499 86.2629 392.095 86.373C392.095 86.373 392.024 86.5704 392.166 87.343Z" fill="#271000"/>
<path d="M395.381 96.8942C395.172 96.8942 395.057 96.9892 395.138 97.1379C395.138 97.1379 396.066 98.8829 397.692 99.0876C399.317 99.2923 400.643 97.813 400.643 97.813C400.772 97.6716 400.66 97.5278 400.4 97.4937C400.397 97.4864 397.592 97.1306 395.381 96.8942Z" fill="white"/>
<path d="M427.196 180.888C427.196 180.888 433.06 190.352 427.196 200.956C421.332 211.56 403.433 207.695 403.382 193.959C403.329 180.389 415.678 175.2 427.196 180.888Z" fill="#065099"/>
<path d="M398.232 109.377C398.232 109.377 390.757 109.653 386.843 110.771C383.445 113.252 383.053 119.189 384.269 122.899C385.661 127.159 386.219 132.594 387.608 138.752C389.497 147.1 387.121 153.202 389.221 161.494C390.964 168.347 427.419 161.494 427.419 161.494L432.05 129.411C432.05 129.411 433.756 120.6 425.772 117.671C425.772 117.671 417.748 113.265 411.595 111.181C411.595 111.181 412.552 117.671 401.973 115.877C401.963 115.877 395.5 114.32 398.232 109.377Z" fill="#872952"/>
<path d="M427.41 161.494C428.957 166.999 430.181 185.563 430.181 185.563C425.991 202.945 387.435 190.437 387.206 187.946C386.936 184.961 388.115 170.757 388.72 158.457C388.727 158.467 404.937 152.666 427.41 161.494Z" fill="#872952"/>
<path d="M416.046 130.232C418.561 135.35 427.901 161.172 430.913 165.254C431.712 166.339 439.409 171.298 441.149 164.54C436.908 137.731 430.491 122.443 430.491 122.443C430.491 122.443 422.997 116.194 417.011 121.97C416.999 121.97 414.272 126.688 416.046 130.232Z" fill="#F7A483"/>
<path d="M414.985 125.658C414.689 127.416 414.92 129.223 415.65 130.85C416.381 132.477 417.577 133.851 419.089 134.798C420.6 135.746 422.358 136.223 424.141 136.171C425.923 136.119 427.651 135.539 429.104 134.506C430.557 133.472 431.671 132.03 432.306 130.363C432.94 128.697 433.065 126.879 432.666 125.141C432.267 123.402 431.362 121.821 430.065 120.598C428.767 119.374 427.136 118.562 425.377 118.266C424.21 118.069 423.015 118.104 421.86 118.368C420.706 118.633 419.615 119.123 418.65 119.809C417.685 120.496 416.865 121.365 416.236 122.369C415.607 123.372 415.182 124.49 414.985 125.658Z" fill="#F7A483"/>
<path d="M423.879 116.684C423.879 116.684 431.629 119.591 433.464 125.879L438.248 142.998C438.248 142.998 431.98 152.115 422.636 151.811L413.406 131.309C413.406 131.309 407.196 119.794 423.879 116.684Z" fill="#872952"/>
<path d="M324.658 165.654L327.044 165.588C327.044 165.588 322.692 166.707 321.288 165.291C321.288 165.291 320.93 165.069 321.488 164.56C321.488 164.56 325.338 164.43 327.03 163.943C327.03 163.943 323.22 164.864 320.508 164.591C320.508 164.591 319.445 163.892 320.591 163.261C319.726 162.924 320.464 162.354 320.464 162.354C321.296 161.942 322.164 161.608 323.057 161.355C325.078 160.686 327.062 159.912 329.001 159.037C329.001 159.037 326.489 157.392 327.429 156.068L331.305 158.111L334.812 160.365L335.28 162.739L331.624 165.276C331.624 165.276 328.078 166.702 326.07 166.77C326.077 166.773 320.315 166.568 324.658 165.654Z" fill="#E59375"/>
<path d="M413.955 256.126L423.981 318.613C423.981 318.613 427.303 321.815 435.012 318.613L436.291 288.082C436.291 288.082 438.553 267.91 430.566 253.523C430.566 253.523 414.83 240.823 413.955 256.126Z" fill="#065099"/>
<path d="M405.031 254.237C405.031 254.237 409.301 260.413 405.475 283.591L401.561 315.242C401.561 315.242 397.059 317.94 391.992 315.366L388.839 252.31C388.839 252.31 391.668 241.606 405.031 254.237Z" fill="#104473"/>
<path d="M331.87 177.957C331.87 177.196 331.467 176.507 330.651 175.949C330.517 175.86 330.379 175.779 330.237 175.705L330.098 175.637L329.779 175.493L329.698 175.459L329.625 175.434C329.452 175.366 329.272 175.305 329.086 175.249C328.899 175.196 328.704 175.147 328.506 175.103L328.441 175.086L328.358 175.069C328.114 175.02 327.887 174.974 327.646 174.932H327.627H327.566C327.322 174.893 327.064 174.857 326.808 174.823H326.727C326.457 174.789 326.186 174.759 325.916 174.728C325.9 174.726 325.885 174.726 325.869 174.728L325.211 174.652L324.441 174.562C324.397 174.562 324.349 174.55 324.302 174.542C324.059 174.508 323.815 174.474 323.571 174.435C323.444 174.413 323.327 174.394 323.193 174.369C322.95 174.323 322.682 174.269 322.426 174.216L322.287 174.184C322.101 174.143 321.916 174.1 321.731 174.052H321.716C321.529 174.004 321.346 173.955 321.163 173.901L320.99 173.848C320.863 173.811 320.746 173.772 320.615 173.731L320.434 173.67L320.059 173.533C320.013 173.514 319.964 173.499 319.92 173.48C319.762 173.419 319.608 173.355 319.462 173.287C318.744 172.908 318.062 172.463 317.425 171.959L317.573 188.941C318.21 189.446 318.892 189.89 319.611 190.269C319.757 190.335 319.91 190.399 320.066 190.464H320.101L320.208 190.503L320.586 190.642L320.761 190.701L321.146 190.823L321.253 190.854L321.309 190.869C321.492 190.923 321.68 190.976 321.868 191.022L322.438 191.157H322.491L322.567 191.174C322.825 191.23 323.084 191.283 323.34 191.33L323.656 191.386H323.72C323.963 191.425 324.207 191.459 324.451 191.493L324.6 191.512L325.355 191.603L325.843 191.659C325.911 191.659 325.977 191.676 326.045 191.681L326.866 191.78C326.887 191.782 326.908 191.782 326.929 191.78C327.188 191.815 327.444 191.851 327.697 191.895L327.778 191.907C328.021 191.946 328.265 191.992 328.489 192.041L328.64 192.075C328.838 192.119 329.033 192.168 329.22 192.224C329.408 192.28 329.593 192.343 329.769 192.412L329.922 192.47C330.032 192.514 330.137 192.563 330.242 192.614L330.378 192.68C330.522 192.752 330.661 192.834 330.795 192.923C331.623 193.482 332.013 194.174 332.013 194.932L331.87 177.957Z" fill="#394472"/>
<path d="M307.264 215.355L307.437 215.316L307.681 215.265L307.878 215.231L308.044 215.201L308.171 229.432L331.736 245.334L331.584 228.352L312.065 215.179C312.35 215.214 312.638 215.253 312.926 215.301L313.125 215.335L313.45 215.394L313.693 215.44L314.003 215.504L314.22 215.555C314.388 215.591 314.556 215.633 314.724 215.674L314.863 215.711C315.073 215.764 315.282 215.823 315.492 215.884L315.611 215.918C315.901 216.006 316.189 216.096 316.474 216.193L316.515 216.208C316.803 216.305 317.086 216.41 317.368 216.52L317.437 216.549C317.761 216.673 318.083 216.81 318.399 216.954L318.446 216.973C318.767 217.117 319.082 217.273 319.394 217.434L319.425 217.448C319.742 217.612 320.052 217.785 320.354 217.963C320.354 217.963 320.354 217.963 320.369 217.963C320.678 218.145 320.978 218.333 321.27 218.53C323.873 220.285 325.24 222.257 325.255 223.936C325.206 218.274 325.157 212.613 325.106 206.954C325.092 205.275 323.722 203.298 321.122 201.548C320.829 201.352 320.529 201.162 320.22 200.98H320.205C319.903 200.8 319.591 200.63 319.277 200.466L319.243 200.452C318.933 200.291 318.616 200.137 318.297 199.991L318.248 199.972C317.931 199.828 317.612 199.694 317.288 199.565H317.269L317.22 199.547C316.935 199.435 316.649 199.328 316.359 199.231L316.328 199.218C316.038 199.118 315.748 199.028 315.458 198.943L315.389 198.921H315.346C315.136 198.858 314.924 198.802 314.712 198.746L314.583 198.714L314.066 198.59L313.969 198.565L313.861 198.543L313.537 198.475L313.313 198.431L312.986 198.373L312.83 198.346H312.789C312.497 198.297 312.207 198.258 311.919 198.224H311.851H311.8C311.556 198.197 311.297 198.173 311.051 198.153H310.99H310.908C310.447 198.124 309.998 198.114 309.557 198.127H309.411C309.199 198.127 308.987 198.144 308.782 198.161H308.768H308.731C308.514 198.178 308.305 198.202 308.098 198.231H308.029H307.983C307.898 198.244 307.812 198.258 307.739 198.275L307.559 198.307L307.301 198.361L307.164 198.392H307.145C306.962 198.436 306.781 198.487 306.608 198.541L306.491 198.58C306.316 198.638 306.145 198.699 305.982 198.768C305.819 198.836 305.738 198.889 305.614 198.948L305.512 199.006L305.387 199.075L305.29 199.138L305.166 199.218C305.102 199.262 305.041 199.306 304.983 199.352L304.878 199.43L304.841 199.46C304.773 199.518 304.705 199.577 304.644 199.635L304.622 199.66C304.571 199.708 304.522 199.757 304.476 199.808C304.43 199.859 304.449 199.84 304.437 199.855L304.371 199.93C304.327 199.984 304.283 200.035 304.244 200.091L304.188 200.164L304.159 200.205C304.139 200.232 304.122 200.26 304.105 200.288C304.069 200.342 304.035 200.393 304.003 200.447C303.971 200.5 303.957 200.527 303.932 200.569L303.847 200.722L303.818 200.778C303.808 200.797 303.799 200.817 303.791 200.837C303.745 200.927 303.701 201.019 303.659 201.11C303.659 201.132 303.642 201.151 303.633 201.171L303.472 201.536C303.433 201.629 303.394 201.724 303.352 201.816L303.304 201.924C303.255 202.036 303.201 202.145 303.145 202.255C303.116 202.316 303.084 202.375 303.053 202.431L303.009 202.511C302.96 202.594 302.909 202.679 302.855 202.755L302.745 202.908C302.692 202.981 302.633 203.057 302.575 203.133L302.499 203.228C302.421 203.325 302.338 203.42 302.256 203.518C302.249 203.524 302.242 203.532 302.236 203.54C302.144 203.637 302.046 203.737 301.944 203.834L301.856 203.92L301.627 204.122L301.507 204.219C301.429 204.283 301.347 204.349 301.264 204.41L301.149 204.497C301.025 204.583 300.905 204.668 300.767 204.741L300.723 204.763L300.706 204.775L300.652 204.804L300.623 204.819L300.557 204.851L300.513 204.875L300.445 204.909L300.381 204.938L300.313 204.973L300.233 205.014L300.155 205.048L300.067 205.09L299.945 205.146L299.887 205.175C299.826 205.204 299.76 205.233 299.692 205.26C299.248 205.46 298.717 205.674 298.244 205.838L274.65 189.918L274.799 206.903L298.393 222.822C298.88 222.657 299.397 222.442 299.855 222.245L300.221 222.079L300.374 222.006L300.481 221.955L300.525 221.93L300.606 221.894L300.654 221.867L300.715 221.838L300.764 221.811L300.806 221.791L300.849 221.767L300.876 221.752L300.903 221.738C301.037 221.655 301.164 221.567 301.288 221.494L301.398 221.409C301.483 221.348 301.566 221.284 301.641 221.216L301.702 221.17L301.758 221.121C301.836 221.053 301.912 220.987 301.985 220.919L302.078 220.834C302.178 220.736 302.275 220.639 302.368 220.539L302.387 220.517C302.473 220.422 302.555 220.329 302.631 220.234C302.658 220.2 302.682 220.166 302.709 220.134C302.767 220.061 302.821 219.988 302.875 219.912L302.921 219.854L302.987 219.759C303.043 219.676 303.094 219.593 303.14 219.515C303.16 219.486 303.174 219.454 303.191 219.425C303.209 219.396 303.248 219.323 303.272 219.269C303.328 219.159 303.382 219.047 303.433 218.935C303.447 218.899 303.462 218.864 303.479 218.83C303.518 218.738 303.559 218.645 303.598 218.55L303.759 218.18L303.786 218.126C303.828 218.031 303.871 217.941 303.918 217.846C303.937 217.809 303.954 217.773 303.974 217.738C303.993 217.704 304.03 217.629 304.062 217.578C304.093 217.526 304.105 217.497 304.13 217.458C304.154 217.419 304.196 217.353 304.232 217.3L304.315 217.175L304.371 217.1L304.498 216.941L304.564 216.866C304.622 216.8 304.683 216.737 304.746 216.673L304.771 216.649C304.844 216.578 304.924 216.51 305.014 216.444L305.114 216.364L305.3 216.23L305.424 216.149L305.646 216.015L305.748 215.962C305.863 215.898 305.992 215.837 306.116 215.779C306.24 215.72 306.45 215.65 306.625 215.591L306.742 215.552C306.903 215.445 307.081 215.399 307.264 215.355Z" fill="#424888"/>
<path d="M404.592 197.627L404.743 214.609L331.728 245.332L331.577 228.352L404.592 197.627Z" fill="#5860AB"/>
<path d="M274.619 189.916L304.823 177.206C305.67 177.72 306.462 178.321 307.187 178.997C308.598 180.857 306.777 183.384 309.136 184.993C312.061 186.96 319.226 186.528 325.163 184.033C325.329 183.962 325.492 183.894 325.651 183.821C331.229 181.335 333.464 177.862 330.63 175.948C328.816 174.73 325.695 174.803 323.15 174.333C321.868 174.118 320.616 173.753 319.419 173.246C318.7 172.866 318.018 172.422 317.381 171.917L347.624 159.193L404.583 197.627L331.578 228.362L308.013 212.462C308.105 212.416 308.205 212.372 308.305 212.326C309.319 211.884 310.359 211.504 311.418 211.185C314.93 210.412 319.684 211.351 322.721 210.074C326.44 208.416 325.682 204.658 321.103 201.568C316.472 198.443 309.69 197.181 305.953 198.758C303.633 199.791 303.723 201.419 302.827 202.752C302.278 203.557 301.565 204.237 300.736 204.748C300.623 204.814 300.199 205.029 299.661 205.268C299.217 205.467 298.686 205.682 298.213 205.845L274.619 189.916Z" fill="#6174B8"/>
<path d="M172.231 269.935C172.231 269.935 174.732 268.314 172.331 265.324C166.131 264.929 158.839 261.581 158.839 261.581C149.724 258.712 136.924 244.603 131.097 238.184C124.551 230.975 114.641 237.094 119.959 245.325C129.9 260.725 156.061 270.878 172.1 270.281" fill="#F8A07D"/>
<path d="M104.376 341.568C108.185 323.777 109.326 282.56 109.326 282.56C109.326 282.56 106.275 278.509 95.2806 277.802C84.2865 277.096 85.0201 283.864 85.0713 282.986C85.0713 282.986 85.0713 312.149 90.1284 340.869C90.1284 340.869 97.9736 346.274 104.376 341.568Z" fill="#053B6B"/>
<path d="M85.1838 285.004C84.0993 277.641 86.3439 270.213 87.5016 262.77H120.976C123.118 269.906 125.346 277.237 125.346 277.237C125.346 277.237 126.779 294.117 112.441 296.139C112.441 296.139 87.4577 300.47 85.1838 285.004Z" fill="#007EA3"/>
<path d="M65.5298 413.501C65.5298 427.693 91.3856 439.198 123.291 439.198C155.195 439.198 181.051 427.693 181.051 413.501C181.051 399.309 155.195 387.804 123.291 387.804C91.3856 387.804 65.5298 399.309 65.5298 413.501Z" fill="#9EABD3"/>
<path d="M156.878 412.573L154.972 412.46C154.321 412.361 154.326 413.384 154.241 413.418C152.245 414.205 150.473 414.817 149.725 414.849C149.725 414.849 146.196 414.391 145.825 413.323L146.313 406.775C150.246 406.446 154.355 405.685 154.355 405.685L163 404.467C167.158 404.033 167.913 405.536 167.913 405.536C167.913 405.536 170.453 409.343 156.878 412.573Z" fill="#17181C"/>
<path d="M151.633 412.185C152.348 411.857 153.098 411.612 153.868 411.454C158.13 410.708 162.303 410.284 165.851 407.554C166.717 406.884 167.328 406.053 167.392 405.059C167.598 405.18 167.774 405.346 167.906 405.546C167.906 405.546 170.453 409.348 156.878 412.577L154.972 412.465C154.321 412.365 154.326 413.389 154.241 413.423C152.245 414.21 150.473 414.822 149.725 414.854C149.725 414.854 146.196 414.395 145.825 413.328L145.947 411.732C147.341 412.533 149.82 413.023 151.633 412.185Z" fill="#040308"/>
<path d="M99.1416 410.952L97.2333 410.84C96.5826 410.74 96.5875 411.761 96.5022 411.798C94.5086 412.582 92.7368 413.196 91.9861 413.228C91.9861 413.228 88.4596 412.77 88.0867 411.7L88.5741 405.154C92.5077 404.822 96.6167 404.064 96.6167 404.064L105.259 402.846C109.419 402.412 110.175 403.918 110.175 403.918C110.175 403.918 112.717 407.723 99.1416 410.952Z" fill="#17181C"/>
<path d="M93.8944 410.564C94.609 410.236 95.3588 409.991 96.1293 409.833C100.394 409.087 104.564 408.663 108.113 405.934C108.98 405.266 109.592 404.435 109.653 403.44C109.861 403.561 110.038 403.728 110.17 403.928C110.17 403.928 112.717 407.73 99.1416 410.959L97.2333 410.847C96.5826 410.747 96.5875 411.768 96.5022 411.805C94.5086 412.59 92.7368 413.204 91.9861 413.235C91.9861 413.235 88.4596 412.777 88.0867 411.707L88.2061 410.113C89.6026 410.905 92.0836 411.393 93.8944 410.564Z" fill="#040308"/>
<path d="M98.4102 405.631C99.8262 403.943 104.471 341.868 104.471 341.868C105.242 332.326 89.361 336.333 89.361 336.333C87.0506 345.838 87.4259 347.62 86.6996 359.408C86.4121 364.063 87.153 402.626 86.9823 405.592C87.0067 405.592 94.3572 410.472 98.4102 405.631Z" fill="#053B6B"/>
<path d="M110.581 271.4C110.581 271.4 120.108 287.619 114.236 298.226C108.365 308.832 83.6696 297.287 85.1879 285.009C86.8647 271.539 99.0651 265.709 110.581 271.4Z" fill="#30528B"/>
<path d="M117.416 250.718C118.963 256.226 125.346 277.237 125.346 277.237C107.855 293.732 85.2791 280.649 85.05 278.161C84.7771 275.175 88.1087 263.781 88.7058 251.486C88.7131 251.486 94.9425 241.891 117.416 250.718Z" fill="#F7A483"/>
<path d="M138.463 338.488C136.606 320.384 123.711 274.205 123.711 274.205C123.711 274.205 119.94 270.735 109.266 273.445C98.5908 276.155 97.4064 290.093 97.1846 289.24C97.1846 289.24 109.614 318.469 126.136 344.222C126.136 344.222 134.122 348.309 138.463 338.488Z" fill="#30528B"/>
<path d="M154.57 404.942C154.255 402.748 138.158 337.898 138.158 337.898C134.368 329.899 123.484 338.322 123.484 338.322C123.523 344.127 123.676 351.129 127.427 362.328C128.906 366.751 142.593 406.809 143.544 409.609C143.549 409.621 151.633 412.185 154.57 404.942Z" fill="#30528B"/>
<path d="M76.1076 208.682C76.1076 208.682 74.3772 237.816 75.4813 249.575C75.4813 249.575 75.4813 254.92 84.8936 257.598C84.8936 257.598 88.3178 225.165 91.1059 210.683C91.1059 210.683 85.5443 199.945 76.1076 208.682Z" fill="#E59375"/>
<path d="M86.6199 216.208C84.7698 216.996 82.6831 217.021 80.8149 216.277C78.9467 215.532 77.4485 214.08 76.647 212.235C76.2576 211.322 76.0528 210.341 76.0445 209.349C76.0361 208.356 76.2244 207.372 76.5985 206.452C76.9726 205.533 77.525 204.696 78.224 203.992C78.9229 203.287 79.7545 202.727 80.6708 202.345C82.5211 201.559 84.607 201.536 86.4746 202.28C88.3423 203.024 89.8406 204.475 90.6436 206.318C91.0334 207.231 91.2385 208.212 91.2469 209.205C91.2554 210.198 91.0672 211.182 90.6931 212.102C90.319 213.021 89.7664 213.857 89.0673 214.562C88.3682 215.267 87.5364 215.826 86.6199 216.208Z" fill="#E59375"/>
<path d="M82.6707 200.437C82.6707 200.437 75.7955 202.041 75.4226 210.008L74.3088 238.723C74.3088 238.723 81.1816 243.287 90.087 242.51C90.087 242.51 100.36 204.164 82.6707 200.437Z" fill="#FFD47C"/>
<path d="M108.651 182.207C108.651 182.207 108.712 192.463 109.606 202.679L96.0777 200.439C96.0777 200.439 98.0591 195.775 95.271 191.602L108.651 182.207Z" fill="#F7A483"/>
<path d="M82.6703 200.437C79.2729 202.921 78.883 208.857 80.0943 212.564C81.4883 216.825 82.044 222.259 83.4356 228.418C85.3268 236.765 86.6039 243.195 88.7121 251.486C90.4571 258.339 118.004 252.817 118.004 252.817L127.88 219.076C127.88 219.076 129.586 210.269 121.599 207.337C121.599 207.337 113.196 202.799 107.042 200.712C101.607 198.872 99.6379 198.702 94.0592 199.045C94.0592 199.045 86.5844 199.318 82.6703 200.437Z" fill="#F7A483"/>
<path d="M123.033 270.557C123.033 270.557 128.896 280.018 123.033 290.622C117.169 301.226 99.2703 297.361 99.2167 283.625C99.1655 270.055 111.517 264.866 123.033 270.557Z" fill="#30528B"/>
<path d="M94.0603 199.046C94.0603 199.046 86.5855 199.318 82.6714 200.437C79.1375 203.021 79.1985 208.095 79.8809 211.933C81.1847 219.274 82.5081 226.69 83.1881 234.111C83.4903 237.402 84.3116 244.104 84.5553 247.392C84.7991 250.589 85.8056 252.351 89.0763 254.04C91.5622 255.322 93.4095 254.303 96.1197 254.376C103.007 254.564 109.809 253.811 116.633 252.965C116.923 252.931 127.576 260.118 124.071 254.83L127.881 219.077C127.881 219.077 129.587 210.269 121.6 207.337C121.6 207.337 115.995 203.822 109.836 201.731C109.836 201.739 99.1344 202.012 94.0603 199.046Z" fill="#FFD47C"/>
<path d="M113.201 194.052L113.779 191.824L115.149 183.611C115.298 182.479 115.211 181.328 114.893 180.231C114.569 179.134 114.313 177.976 114.471 176.765C115.256 170.882 111.961 167.959 111.961 167.959C108.127 162.922 100.153 163.626 100.15 163.626C96.0071 164.253 92.4001 165.963 90.3431 169.736C88.4763 173.148 87.46 177.33 88.5689 181.149C89.7875 185.336 92.1296 188.607 95.2345 191.578C97.2208 193.479 99.251 193.71 101.851 194.663C103.662 195.324 107.128 195.711 109.053 195.724C110.062 195.726 112.87 195.331 113.201 194.052Z" fill="#F8A07D"/>
<path d="M111.622 171.369L110.35 176.468C108.9 177.104 108.32 177.664 108.517 179.573L108.978 183.784L107.833 184.223C107.928 182.536 105.588 182.517 105.588 182.517C103.882 182.419 103.587 183.877 103.685 185.28C103.928 188.924 102.612 194.71 99.5584 195.729C98.352 196.131 96.0781 196.55 95.6955 194.915C95.23 192.916 91.4451 188.948 91.4451 188.948C86.8973 184.547 85.7592 177.031 87.9063 171.291C88.6415 169.47 89.7546 167.825 91.1721 166.466C94.0065 163.755 97.577 162.42 101.338 161.93C101.338 161.93 106.521 161.299 109.436 163.344C111.24 164.613 112.427 165.781 113.197 166.785C113.202 166.78 114.303 169.122 111.622 171.369Z" fill="#3F1901"/>
<path d="M107.45 187.798C107.078 188.115 106.608 188.292 106.119 188.3C104.606 188.373 103.26 187.038 103.114 185.317C102.968 183.596 104.089 182.149 105.59 182.071C105.944 182.059 106.297 182.117 106.629 182.243C106.96 182.368 107.263 182.558 107.521 182.802C108.296 183.516 108.408 184.917 108.296 185.894C108.21 186.687 107.947 187.364 107.45 187.798Z" fill="#F8A07D"/>
<path d="M106.304 183.635C106.155 182.736 104.383 183.716 104.69 184.208C104.907 184.476 105.171 184.702 105.47 184.873C105.638 184.976 105.781 185.115 105.888 185.279C105.996 185.443 106.067 185.629 106.094 185.824C106.094 185.88 106.124 186.033 106.072 186.068C105.848 186.248 105.017 185.412 104.834 185.239C104.665 185.046 104.548 184.813 104.493 184.563C104.438 184.312 104.447 184.052 104.52 183.806C104.563 183.587 104.685 183.392 104.863 183.258C105.04 183.123 105.26 183.058 105.483 183.075C105.894 183.075 106.316 183.075 106.323 183.586C106.323 183.586 106.309 183.684 106.304 183.638V183.635Z" fill="#E98B6F"/>
<path d="M105.773 184.61C105.951 184.405 106.143 184.554 106.346 184.683C106.527 184.801 106.656 184.984 106.706 185.195C106.854 185.701 106.808 186.244 106.577 186.718C106.482 186.889 106.344 187.032 106.178 187.134C106.011 187.236 105.822 187.295 105.627 187.303C105.076 187.32 104.881 186.845 104.83 186.38C104.83 186.258 104.786 185.96 104.905 185.877C105.025 185.795 105.149 185.985 105.232 186.068C105.373 186.169 105.545 186.22 105.719 186.211C105.876 186.21 106.029 186.171 106.168 186.099C106.306 186.027 106.426 185.922 106.516 185.795C106.548 185.75 106.572 185.7 106.589 185.648C106.609 185.953 106.589 186.021 106.553 185.856C106.525 185.781 106.485 185.711 106.436 185.648C106.294 185.446 106.07 185.314 105.914 185.122C105.844 185.034 105.692 184.715 105.783 184.61H105.773Z" fill="#E98B6F"/>
<path d="M181.786 266.838C181.084 265.799 181.698 265.258 180.277 265.212C178.661 265.158 177.214 264.361 176.117 264.391C174.206 264.444 166.987 266.128 171.83 270.259C172.958 271.234 176.185 275.536 178.41 274.259C181.71 272.368 180.589 273.065 182.266 268.96L181.786 266.838Z" fill="#F7A483"/>
<path d="M114.474 213.839C113.568 215.248 113.1 216.895 113.131 218.57C113.161 220.245 113.687 221.873 114.642 223.249C115.598 224.625 116.94 225.687 118.5 226.3C120.059 226.913 121.765 227.049 123.402 226.693C125.038 226.336 126.533 225.502 127.695 224.296C128.858 223.09 129.637 221.566 129.934 219.917C130.23 218.268 130.031 216.568 129.362 215.033C128.692 213.497 127.582 212.194 126.172 211.29C124.282 210.078 121.989 209.666 119.795 210.144C117.602 210.622 115.688 211.951 114.474 213.839Z" fill="#F7A483"/>
<path d="M125.094 245.23C126.193 256.779 126.903 285.065 126.903 285.065C122.803 296.005 83.7015 286.771 83.4749 284.28C83.2019 281.295 84.0037 260.274 84.6081 247.981C84.6081 247.981 102.621 236.405 125.094 245.23Z" fill="#FFD47C"/>
<path d="M119.772 206.376C130.072 209.277 131.351 221.73 131.351 221.73L136.001 242.203C136.001 242.203 124.303 251.481 117.167 248.871C117.167 248.871 111.357 233.419 109.534 218.019C109.534 218.026 109.607 206.713 119.772 206.376Z" fill="#FFD47C"/>
<path d="M113.815 171.252C112.65 172.19 111.171 171.574 109.84 171.267C108.027 173.394 110.196 175.52 107.449 176.551C105.987 177.096 103.842 177.252 102.231 177.525C100.944 177.733 99.6429 177.435 98.7217 178.398C97.7249 179.439 98.6705 182.68 97.5031 183.299C95.4461 184.386 93.8303 178.751 91.2079 179.197C88.9681 179.577 88.5709 183.131 89.3556 184.878C89.1781 184.721 88.9816 184.587 88.7707 184.479C87.7032 181.698 86.3336 181.649 85.1637 179.67C83.3383 176.604 83.6478 177.335 83.2847 174.391C83.2847 174.364 83.6429 173.102 83.6478 173.085C84.5032 169.951 85.968 169.429 86.6723 168.086C87.4035 166.682 88.5611 165.698 89.5116 164.462C90.389 163.322 90.8301 161.781 91.8367 160.77C93.3672 159.222 95.8726 158.447 97.9759 158.172C100.242 157.872 102.399 159.278 104.644 158.886C105.565 158.723 106.426 157.887 107.349 157.94C108.478 158.004 109.258 159.12 110.232 159.559C112.043 160.373 114.895 160.046 116.442 161.318C118.148 162.727 117.785 164.764 116.732 166.49C116.14 167.465 114.943 168.016 114.412 169.017C114.256 169.283 113.856 171.223 113.815 171.252Z" fill="#3F1901"/>
<path d="M432.011 163.022C432.011 163.022 422.625 179.438 415.207 197.949C415.207 197.949 415.343 201.47 417.936 200.386C420.53 199.301 441.457 169.658 441.479 166.96C441.533 160.019 432.011 163.022 432.011 163.022Z" fill="#F7A483"/>
<path d="M410.202 204.997L412.461 204.227C412.461 204.227 408.634 206.584 406.875 205.648C406.875 205.648 406.465 205.541 406.848 204.895C406.848 204.895 410.489 203.63 411.966 202.662C411.966 202.662 408.598 204.668 405.927 205.212C405.927 205.212 404.708 204.858 405.612 203.915C404.689 203.852 405.225 203.089 405.225 203.089C405.897 202.449 406.628 201.872 407.406 201.366C409.137 200.128 410.803 198.802 412.397 197.393C412.397 197.393 409.509 196.564 410.019 195.022L414.325 195.826L418.342 196.942L419.49 199.072L416.755 202.575C416.755 202.575 413.789 204.985 411.881 205.645C411.881 205.645 406.324 207.159 410.202 204.997Z" fill="#F7A483"/>
<path d="M315.59 261.619C315.59 260.871 315.988 260.191 316.809 259.643C316.94 259.554 317.077 259.472 317.218 259.399L317.355 259.331L317.667 259.19C317.694 259.19 317.718 259.165 317.747 259.156L317.82 259.131C317.991 259.065 318.164 259.004 318.347 258.951C318.53 258.897 318.722 258.851 318.915 258.807L318.983 258.79L319.068 258.773C319.295 258.724 319.524 258.68 319.76 258.639H319.782H319.858C320.102 258.602 320.328 258.568 320.569 258.536H320.662C320.92 258.502 321.181 258.473 321.442 258.441H321.488L321.664 258.422L322.19 258.361C322.434 258.334 322.678 258.302 322.921 258.273L323.068 258.254C323.311 258.222 323.555 258.188 323.782 258.149L324.155 258.088C324.398 258.039 324.659 257.988 324.912 257.932L325.056 257.9C325.237 257.861 325.417 257.818 325.597 257.771H325.614C325.797 257.725 325.977 257.674 326.155 257.623L326.321 257.574L326.689 257.457L326.869 257.396C326.991 257.354 327.113 257.311 327.228 257.267L327.374 257.211C327.53 257.147 327.681 257.084 327.827 257.018C328.535 256.647 329.206 256.209 329.831 255.712L329.684 272.419C329.059 272.916 328.389 273.354 327.681 273.725C327.535 273.793 327.381 273.856 327.225 273.92C327.214 273.924 327.202 273.929 327.191 273.934L327.089 273.971C326.969 274.017 326.845 274.061 326.721 274.105L326.545 274.164C326.423 274.205 326.302 274.242 326.177 274.281L326.065 274.315L326.007 274.329C325.829 274.383 325.651 274.432 325.471 274.478H325.446C325.268 274.524 325.09 274.566 324.91 274.607L324.852 274.622L324.764 274.639C324.52 274.692 324.259 274.746 324.008 274.79L323.696 274.846H323.631C323.387 274.885 323.163 274.919 322.926 274.948L322.765 274.97L322.059 275.056H322.039L321.537 275.114L321.293 275.141C321.035 275.17 320.779 275.202 320.523 275.236H320.431C320.187 275.268 319.943 275.302 319.716 275.341L319.621 275.355C319.378 275.397 319.153 275.441 318.927 275.489L318.778 275.521C318.583 275.567 318.391 275.614 318.205 275.67C318.023 275.723 317.845 275.784 317.672 275.853L317.521 275.911C317.413 275.955 317.311 276.001 317.209 276.052C317.162 276.074 317.116 276.094 317.072 276.118C316.931 276.194 316.792 276.272 316.663 276.362C315.849 276.913 315.461 277.58 315.444 278.338L315.59 261.619Z" fill="#004E89"/>
<path d="M250.337 277.366L250.315 277.271C250.315 277.242 250.315 277.213 250.298 277.183C250.281 277.154 250.298 277.164 250.298 277.154C250.291 277.111 250.286 277.067 250.283 277.023C250.283 276.988 250.283 276.957 250.283 276.923C250.283 276.888 250.283 276.83 250.283 276.781C250.283 276.732 250.283 276.73 250.283 276.703V276.669L250.432 259.96C250.432 259.999 250.432 260.036 250.432 260.075C250.432 260.113 250.432 260.17 250.432 260.216C250.432 260.262 250.432 260.282 250.432 260.313C250.432 260.345 250.432 260.401 250.449 260.447C250.454 260.486 250.462 260.524 250.471 260.562C250.471 260.596 250.471 260.625 250.491 260.659C250.51 260.694 250.513 260.737 250.522 260.776L250.549 260.869C250.556 260.884 250.562 260.899 250.566 260.915C250.607 261.03 250.655 261.143 250.71 261.252C250.765 261.358 250.827 261.46 250.895 261.559L250.927 261.607C250.997 261.705 251.073 261.798 251.154 261.888L251.224 261.963L251.305 262.044L251.4 262.134L251.487 262.212L251.573 262.283C251.624 262.324 251.678 262.363 251.734 262.402C251.76 262.424 251.789 262.445 251.819 262.463C251.882 262.507 251.946 262.548 252.011 262.587L252.087 262.634C252.145 262.669 252.206 262.703 252.27 262.736L252.353 262.782C252.445 262.828 252.54 262.875 252.64 262.919C252.83 262.999 253.028 263.07 253.23 263.136C253.296 263.158 253.366 263.175 253.437 263.194C253.574 263.233 253.71 263.274 253.854 263.309L253.966 263.333C254.127 263.37 254.29 263.401 254.453 263.43L254.653 263.462C254.807 263.489 254.963 263.511 255.119 263.53L255.275 263.547C255.477 263.572 255.684 263.594 255.894 263.608C256.023 263.608 256.157 263.628 256.289 263.635L256.623 263.655C256.757 263.655 256.893 263.667 257.03 263.672H257.359C257.619 263.672 257.88 263.672 258.146 263.686H258.165H259.096H259.688H259.981H260.485H260.612C260.688 263.686 260.758 263.686 260.831 263.686L261.212 263.701L261.568 263.72L261.933 263.742H262.057C262.194 263.742 262.328 263.767 262.462 263.781H262.545C262.72 263.801 262.896 263.82 263.066 263.847H263.127C263.371 263.884 263.634 263.928 263.88 263.981H263.902H263.927H263.961L264.014 263.996H264.058L264.127 264.018L264.18 264.035L264.268 264.064L264.324 264.081L264.429 264.115L264.492 264.135L264.609 264.174L264.675 264.198L264.804 264.242L264.877 264.266L265.006 264.313L265.092 264.342L265.216 264.386L265.318 264.425L265.44 264.469L265.547 264.508L265.672 264.554L265.784 264.595L265.908 264.644L266.018 264.688L266.145 264.734L266.254 264.781L266.378 264.829L266.486 264.876L266.617 264.929L266.712 264.971C266.785 265.002 266.859 265.032 266.929 265.066C267 265.1 267.134 265.156 267.229 265.202L267.083 281.909L266.783 281.773L266.566 281.677L266.493 281.648C266.442 281.624 266.391 281.604 266.339 281.582L266.249 281.546L266.108 281.487L266.008 281.448L265.872 281.395L265.767 281.356L265.635 281.305L265.525 281.263L265.401 281.214L265.296 281.175L265.17 281.132L265.07 281.095L264.948 281.051L264.841 281.012L264.738 280.978C264.703 280.964 264.667 280.951 264.631 280.941L264.536 280.907L264.443 280.876L264.351 280.846L264.268 280.817L264.183 280.79L264.109 280.766L264.039 280.744L263.973 280.725L263.915 280.705L263.863 280.69L263.815 280.676H263.78L263.734 280.664C263.49 280.608 263.247 280.566 262.979 280.527C262.789 280.498 262.596 280.471 262.401 280.452H262.304C262.133 280.435 261.96 280.417 261.784 280.405L261.421 280.381L261.063 280.361L260.69 280.347H260.334H259.847H259.54H258.955H258.187H257.995L257.22 280.33H257.181H256.861L256.476 280.315L256.133 280.293L255.75 280.269H255.709C255.514 280.252 255.319 280.232 255.126 280.21L254.982 280.193L254.692 280.157L254.507 280.125L254.312 280.091C254.146 280.064 253.986 280.03 253.825 279.993L253.708 279.969H253.676C253.542 279.935 253.415 279.896 253.286 279.859L253.086 279.803C252.884 279.737 252.687 279.667 252.496 279.586C252.396 279.543 252.301 279.496 252.209 279.45C252.177 279.433 252.148 279.413 252.116 279.399L251.943 279.304H251.924L251.863 279.262C251.797 279.226 251.736 279.184 251.678 279.145L251.587 279.079C251.534 279.04 251.48 279.001 251.431 278.96L251.378 278.921L251.341 278.889L251.256 278.814L251.158 278.721L251.08 278.643L251.029 278.592L251.01 278.568C250.929 278.478 250.854 278.383 250.783 278.285L250.768 278.268C250.762 278.258 250.756 278.247 250.751 278.236C250.682 278.139 250.621 278.037 250.566 277.932C250.513 277.824 250.466 277.713 250.427 277.6C250.426 277.59 250.426 277.581 250.427 277.571V277.549C250.427 277.52 250.41 277.49 250.4 277.459C250.391 277.427 250.347 277.408 250.337 277.366Z" fill="#004E89"/>
<path d="M244.04 280.971L243.894 297.68L315.732 327.908L315.878 311.199L244.04 280.971Z" fill="#0061A2"/>
<path d="M315.878 311.199L315.732 327.908L371.772 290.093L371.918 273.386L315.878 311.199Z" fill="#004E89"/>
<path d="M371.911 273.386L342.178 260.881C341.345 261.388 340.568 261.979 339.857 262.646C338.468 264.474 340.259 266.969 337.93 268.541C335.059 270.476 328.001 270.055 322.161 267.598C321.998 267.527 321.835 267.459 321.674 267.386C316.188 264.949 313.992 261.537 316.777 259.643C318.561 258.439 321.635 258.517 324.135 258.056C325.397 257.845 326.63 257.485 327.808 256.984C328.515 256.613 329.186 256.175 329.811 255.678L300.058 243.158L276.862 258.827C276.374 258.663 275.865 258.451 275.426 258.254C275.069 258.102 274.72 257.932 274.381 257.745C273.565 257.247 272.863 256.582 272.321 255.795C271.439 254.481 271.527 252.87 269.358 251.912C265.568 250.316 258.897 251.554 254.34 254.63C249.833 257.669 249.09 261.366 252.634 262.943C255.744 264.254 260.418 263.33 263.874 264.091C264.911 264.404 265.929 264.777 266.923 265.21C267.028 265.253 267.128 265.3 267.223 265.346L244.038 280.99L315.876 311.211L371.911 273.386Z" fill="#196EAB"/>
<path d="M413.421 447.677C413.421 457.762 395.049 465.934 372.389 465.934C349.728 465.934 331.357 457.762 331.357 447.677C331.357 437.592 349.733 429.428 372.398 429.428C395.064 429.428 413.421 437.595 413.421 447.677Z" fill="#9EABD3"/>
<path d="M351.592 447.122C351.592 447.122 347.239 446.325 348.463 449.876C348.463 449.876 358.626 454.241 365.723 453.256C365.723 453.256 370.709 453.088 369.927 447.677L370.01 443.278L363.32 444.548L363.7 448.725L351.592 447.122Z" fill="#E59375"/>
<path d="M369.927 447.677C369.943 448.366 369.706 449.037 369.261 449.564C367.509 451.582 364.065 451.643 361.643 451.489C357.746 451.225 353.872 450.683 350.052 449.868C349.223 449.693 348.992 449.422 348.984 449.179C349.205 448.64 349.56 448.167 350.017 447.807C350.474 447.447 351.017 447.21 351.592 447.122L347.885 446.646C344.473 446.525 342.916 447.309 342.116 447.826C341.171 450.531 345.772 452.337 345.772 452.337C349.288 453.608 352.895 454.614 356.561 455.347C356.561 455.347 369.569 458.415 371.141 454.414L369.927 447.677Z" fill="#4F1531"/>
<path d="M377.428 441.075C377.428 441.075 373.075 440.281 374.301 443.829C374.301 443.829 384.462 448.194 391.559 447.212C391.559 447.212 396.548 447.044 395.765 441.631L395.848 437.244L389.158 438.509L389.538 442.689L377.428 441.075Z" fill="#E59375"/>
<path d="M395.766 441.631C395.783 442.32 395.545 442.992 395.098 443.517C393.348 445.538 389.905 445.598 387.482 445.442C383.585 445.18 379.711 444.638 375.891 443.822C375.062 443.646 374.831 443.376 374.821 443.132C375.042 442.594 375.399 442.122 375.855 441.762C376.312 441.401 376.854 441.165 377.429 441.075L373.724 440.602C370.312 440.48 368.753 441.263 367.956 441.779C367.01 444.485 371.611 446.288 371.611 446.288C375.127 447.561 378.734 448.569 382.401 449.303C382.401 449.303 395.408 452.369 396.98 448.37L395.766 441.631Z" fill="#4F1531"/>
<path d="M376.225 323.623C376.225 326.082 376.954 328.485 378.32 330.529C379.686 332.573 381.627 334.166 383.898 335.107C386.169 336.048 388.668 336.294 391.079 335.814C393.491 335.334 395.705 334.151 397.444 332.412C399.182 330.674 400.366 328.459 400.845 326.048C401.325 323.637 401.079 321.138 400.138 318.867C399.197 316.596 397.604 314.654 395.56 313.289C393.516 311.923 391.113 311.194 388.655 311.194C385.358 311.194 382.197 312.503 379.866 314.834C377.535 317.165 376.225 320.327 376.225 323.623Z" fill="#00468B"/>
<path d="M396.46 383.412C396.46 383.412 396.282 386.534 390.677 386.612C390.677 386.612 385.366 388.423 383.073 381.508C374.041 354.28 376.429 325.868 376.429 325.868C376.429 325.868 389.183 318.764 401.062 323.623C401.064 323.623 399.144 359.362 396.46 383.412Z" fill="#00468B"/>
<path d="M383.075 381.508C383.075 381.508 387.462 440.356 387.859 442.459C392.129 445.17 395.902 442.384 395.902 442.384C395.88 439.498 399.026 415.434 399.35 410.915C399.909 403.148 400.842 393.336 395.938 382.174L383.075 381.508Z" fill="#00468B"/>
<path d="M360.456 385.208C360.456 385.208 359.26 388.096 353.942 386.31C353.942 386.31 348.336 386.261 348.458 378.979C348.946 350.296 361.524 320.57 361.524 320.57C361.524 320.57 375.681 319.217 385.281 327.737C385.289 327.737 370.963 363.403 360.456 385.208Z" fill="#0058A9"/>
<path d="M361.85 319.512C361.033 321.831 360.923 324.34 361.533 326.722C362.144 329.104 363.446 331.252 365.277 332.893C367.108 334.534 369.384 335.596 371.818 335.943C374.252 336.29 376.735 335.908 378.952 334.844C381.168 333.781 383.02 332.084 384.272 329.967C385.524 327.851 386.12 325.411 385.985 322.956C385.85 320.501 384.99 318.141 383.514 316.175C382.038 314.209 380.011 312.725 377.691 311.91C374.582 310.819 371.168 311.007 368.197 312.432C365.227 313.857 362.944 316.404 361.85 319.512Z" fill="#0058A9"/>
<path d="M401.065 321.815C399.563 308.004 392.634 301.586 392.634 301.586L368.626 298.552C368.626 298.552 362.007 310.068 361.314 321.805C364.183 329.633 374.412 331.915 374.412 331.915L382.179 334.22C382.179 334.22 399.783 331.554 401.065 321.815Z" fill="#0058A9"/>
<path d="M349.575 384.691C349.575 384.691 361.483 446.51 362.199 448.528C361.885 448.377 367.827 451.258 370.459 447.538C370.011 444.687 369.76 413.287 369.411 408.768C368.814 401.003 368.897 393.758 362.392 383.446C362.392 383.446 346.134 371.808 349.575 384.691Z" fill="#0058A9"/>
<path d="M402.841 276.452C402.841 276.452 398.454 281.602 389.768 294.036L391.272 296.583C391.272 296.583 406.17 289.079 410.923 280.654L402.841 276.452Z" fill="#E59375"/>
<path d="M390.527 258.025C390.527 258.025 401.738 282.496 408.479 281.565C408.479 281.565 410.801 281.711 411.267 279.959C411.267 279.959 416.024 275.74 396.244 245.31C396.244 245.31 394.314 242.727 390.354 243.394C390.354 243.394 384.341 247.372 390.527 258.025Z" fill="#E59375"/>
<path d="M384.51 238.866H372.388V251.751H384.51V238.866Z" fill="#F4B78E"/>
<path d="M364.89 239.161L364.434 237.102L363.527 229.546C363.441 228.504 363.595 227.457 363.976 226.483C364.361 225.508 364.688 224.46 364.592 223.349C364.139 217.95 367.615 215.46 367.615 215.46C371.758 211.073 379.725 212.121 379.727 212.121C383.846 212.903 387.378 214.646 389.232 218.189C390.914 221.399 391.696 225.257 390.368 228.669C388.906 232.42 386.369 235.276 383.081 237.821C380.978 239.449 378.923 239.558 376.257 240.289C374.4 240.799 370.895 240.974 368.962 240.887C367.948 240.848 365.151 240.343 364.89 239.161Z" fill="#F7A483"/>
<path d="M370.409 232.176C371.009 231.328 373.185 230.804 373.187 230.804C375.82 230.804 375.476 234.318 375.722 235.839C375.805 236.327 375.9 236.843 376.012 237.35C377.265 241.815 381.02 241.776 384.228 242.317C384.347 242.247 384.471 242.176 384.603 242.105C385.183 240.126 387.04 238.069 387.04 238.069C391.858 233.904 393.43 226.417 391.595 220.522C390.962 218.651 389.937 216.937 388.59 215.494C385.895 212.608 382.385 211.066 378.632 210.359C374.879 209.652 361.572 211.468 365.201 219.571C365.201 219.571 370.692 225.908 370.419 232.171" fill="#340E08"/>
<path d="M370.41 232.176C370.897 230.972 372.06 230.046 373.381 230.438C373.84 230.561 374.241 230.845 374.509 231.238C374.777 231.631 374.896 232.108 374.843 232.581C374.823 232.798 374.775 233.012 374.755 233.227C374.372 235.539 371.935 236.422 371.935 236.422" fill="#F8B78F"/>
<path d="M373.129 231.53C372.948 231.435 372.748 231.381 372.544 231.372C371.659 231.316 370.948 232.678 371.832 232.922C372.164 233.246 371.832 233.622 371.832 233.622C371.528 233.953 371.118 234.428 371.211 234.894C371.267 235.169 371.574 235.318 371.849 235.381C372.074 235.437 372.115 235.262 371.94 235.179C371.809 235.113 371.694 235.019 371.603 234.904C371.595 234.887 371.586 234.87 371.576 234.855C371.567 234.845 371.56 234.833 371.557 234.821C371.533 234.755 371.533 234.684 371.557 234.618C371.654 234.696 371.775 234.739 371.899 234.739C372.024 234.739 372.145 234.696 372.242 234.618C372.41 234.416 372.283 234.102 372.339 233.87C372.384 233.708 372.453 233.554 372.544 233.412C372.948 232.737 372.22 232.622 372.22 232.622C372.129 232.624 372.039 232.63 371.949 232.642C371.579 232.452 371.993 231.894 372.22 231.806C372.347 231.751 372.488 231.734 372.625 231.758C372.762 231.782 372.888 231.845 372.99 231.94C373.169 232.159 373.257 232.44 373.234 232.722C373.211 233.046 373.128 233.362 372.99 233.656C372.91 233.824 372.807 234.019 372.727 234.187C372.646 234.355 372.856 234.46 372.948 234.267C373.141 233.868 373.502 233.293 373.58 232.73C373.629 232.507 373.612 232.276 373.532 232.063C373.452 231.85 373.312 231.665 373.129 231.53Z" fill="#DD9D7E"/>
<path d="M370.41 232.176C370.41 232.176 370.517 232.025 370.688 231.752C370.798 231.602 370.921 231.461 371.056 231.331C371.223 231.163 371.41 231.016 371.614 230.894C371.848 230.761 372.104 230.669 372.369 230.621C372.658 230.578 372.952 230.598 373.232 230.682C373.384 230.728 373.532 230.79 373.671 230.867C373.796 230.944 373.912 231.033 374.019 231.133C374.242 231.347 374.401 231.619 374.48 231.918C374.552 232.238 374.557 232.57 374.494 232.893L374.46 233.158V233.193C374.46 233.178 374.46 233.232 374.46 233.161V233.185V233.251L374.433 233.38C374.405 233.54 374.362 233.696 374.307 233.848C374.205 234.136 374.067 234.411 373.897 234.665C373.741 234.9 373.563 235.12 373.366 235.323C373.065 235.635 372.731 235.913 372.369 236.151C372.103 236.327 371.94 236.417 371.94 236.417C372.107 236.376 372.27 236.322 372.428 236.256C372.849 236.086 373.245 235.86 373.605 235.583C373.849 235.393 374.071 235.176 374.265 234.935C374.493 234.666 374.678 234.362 374.814 234.036C374.888 233.864 374.946 233.686 374.989 233.504L375.023 233.378L375.04 233.312V233.295V233.244V233.21L375.079 232.944C375.16 232.552 375.16 232.149 375.079 231.757C374.965 231.351 374.741 230.985 374.431 230.699C374.353 230.63 374.272 230.565 374.187 230.504L373.909 230.348C373.739 230.265 373.56 230.202 373.376 230.161C373.016 230.073 372.641 230.078 372.284 230.175C371.713 230.331 371.219 230.689 370.892 231.182C370.778 231.345 370.678 231.517 370.592 231.696C370.468 232.001 370.41 232.176 370.41 232.176Z" fill="#DD9D7E"/>
<path d="M371.925 235.856C371.925 236.001 371.882 236.142 371.802 236.263C371.722 236.383 371.607 236.477 371.474 236.532C371.34 236.587 371.193 236.602 371.051 236.574C370.91 236.545 370.779 236.476 370.677 236.373C370.575 236.271 370.505 236.141 370.477 235.999C370.449 235.857 370.463 235.71 370.519 235.577C370.574 235.443 370.668 235.329 370.788 235.248C370.908 235.168 371.049 235.125 371.194 235.125C371.388 235.125 371.574 235.202 371.711 235.339C371.848 235.477 371.925 235.662 371.925 235.856Z" fill="white"/>
<path d="M371.368 236.246C371.231 236.245 371.099 236.196 370.995 236.107C370.891 236.017 370.822 235.894 370.801 235.759C370.78 235.624 370.807 235.485 370.878 235.368C370.95 235.251 371.06 235.163 371.19 235.12C371.046 235.12 370.904 235.163 370.784 235.244C370.664 235.324 370.57 235.438 370.515 235.572C370.459 235.705 370.445 235.852 370.473 235.994C370.501 236.136 370.571 236.266 370.673 236.368C370.775 236.471 370.906 236.54 371.048 236.569C371.189 236.597 371.336 236.582 371.47 236.527C371.604 236.472 371.718 236.378 371.798 236.258C371.878 236.137 371.921 235.996 371.921 235.851C371.921 235.832 371.921 235.815 371.921 235.798C371.893 235.924 371.823 236.037 371.723 236.119C371.622 236.2 371.497 236.245 371.368 236.246Z" fill="#E6E7E8"/>
<path d="M403.981 307.353L390.596 288.148C389.973 285.326 391.379 279.711 391.379 279.711L395.658 250.282C395.152 246.911 394.927 242.629 390.353 243.394C387.133 243.933 386.497 244.384 384.504 245.023C385.084 247.755 380.36 249.509 380.36 249.509C373.873 252.312 372.371 250.467 372.371 250.467C370.643 251.401 364.816 254.318 363.291 255.566C361.714 256.86 360.763 258.878 361.258 262.273L365.928 290.166L365.106 297.095L356.576 318.722C359.233 317.755 362.077 317.416 364.887 317.73C367.539 318.047 369.825 319.612 372.459 319.904C376.441 320.343 379.395 318.905 382.4 317.002C386.391 316.149 390.257 314.79 393.904 312.958H394.147C397.126 312.975 400.496 312.924 402.695 310.592C403.182 310.1 404.544 308.162 403.981 307.353Z" fill="#4F1531"/>
<path d="M357.792 300.214L357.87 266.338C358.694 257.055 363.307 255.573 363.307 255.573C372.627 254.479 371.189 271.751 371.189 271.751L367.29 300.941" fill="#F7A483"/>
<path d="M328.124 318.739C332.399 316.451 332.782 315.712 333.535 314.638C336.786 310.007 330.215 310.165 328.563 310.541C327.613 310.758 327.554 313.014 324.61 315.768C324.61 315.768 319.979 318.449 318.844 318.264C318.844 318.264 317.657 318.435 317.657 319.288C317.657 319.288 320.905 321.218 328.124 318.739Z" fill="#F7A483"/>
<path d="M358.506 296.644L329.484 312.527C328.229 316.019 329.843 316.522 329.843 316.522L352.311 310.058C361.901 307.489 365.715 303.463 365.715 303.463C365.715 303.463 369.91 300.558 364.558 296.23C364.533 296.23 362.096 294.302 358.506 296.644Z" fill="#F7A483"/>
<path d="M367.834 230.102C368.587 235.722 367.739 243.158 370.539 249.302C371.784 252.034 373.161 253.389 372.413 256.563C371.802 259.158 370.573 261.607 369.908 264.296C368.446 270.228 370.437 276.023 377.351 273.876C380.665 272.845 381.036 272.862 384.056 274.032C386.59 275.007 388.974 275.29 391.494 274.064C395.393 272.158 394.226 269.282 396.417 266.399C398.084 264.205 400.443 264.259 401.701 261.308C403.219 257.745 401.411 255.844 399.563 252.821C397.638 249.673 397.328 247.601 397.962 243.804C398.496 240.614 397.706 239.003 396.651 236.068C395.569 233.063 396.041 230.446 395.527 227.434C394.513 221.475 391.257 213.388 385.016 211.641C381.957 210.785 378.004 210.115 375.06 211.195C371.051 212.657 366.588 214.231 366.761 219.162C366.939 224.234 367.166 225.096 367.834 230.102Z" fill="#340E08"/>
<path d="M329.338 310.424C329.338 310.424 330.152 312.802 327.191 312.22L324.291 310.012C324.291 310.012 323.391 309.524 323.711 308.669C323.711 308.669 324.057 308.182 324.983 308.669L329.338 310.424Z" fill="#F7A483"/>
<path d="M395.213 44.8291C395.214 46.8114 394.626 48.7493 393.525 50.3977C392.424 52.0462 390.859 53.331 389.028 54.0898C387.196 54.8486 385.181 55.0473 383.237 54.6607C381.293 54.2741 379.507 53.3196 378.105 51.9179C376.703 50.5162 375.749 48.7303 375.362 46.7861C374.976 44.8418 375.174 42.8266 375.933 40.9953C376.692 39.164 377.977 37.5989 379.625 36.4979C381.274 35.3969 383.212 34.8095 385.194 34.8099C387.851 34.8099 390.4 35.8655 392.279 37.7445C394.158 39.6234 395.213 42.1719 395.213 44.8291Z" fill="#7FC78D"/>
<path d="M82.7224 465.934C82.7224 467.916 82.1347 469.854 81.0335 471.502C79.9323 473.15 78.3671 474.434 76.5359 475.193C74.7047 475.951 72.6897 476.15 70.7457 475.763C68.8017 475.377 67.016 474.422 65.6145 473.021C64.2129 471.619 63.2585 469.833 62.8718 467.889C62.4851 465.945 62.6835 463.93 63.442 462.099C64.2006 460.268 65.4851 458.703 67.1331 457.602C68.7812 456.5 70.7187 455.913 72.7008 455.913C75.3587 455.913 77.9077 456.968 79.7872 458.848C81.6666 460.727 82.7224 463.276 82.7224 465.934Z" fill="#7FC78D"/>
<path d="M72.7009 121.086C72.7013 122.504 72.281 123.891 71.4931 125.071C70.7051 126.251 69.585 127.171 68.2742 127.714C66.9635 128.257 65.5212 128.4 64.1296 128.123C62.738 127.846 61.4598 127.163 60.4565 126.16C59.4533 125.157 58.7701 123.878 58.4934 122.487C58.2167 121.095 58.359 119.653 58.9022 118.342C59.4453 117.031 60.365 115.911 61.5449 115.123C62.7248 114.335 64.1119 113.915 65.5307 113.915C67.4324 113.915 69.2561 114.671 70.6008 116.015C71.9454 117.36 72.7009 119.184 72.7009 121.086Z" fill="#F38DB6"/>
<path d="M485.905 174.922C485.906 176.341 485.485 177.728 484.697 178.908C483.91 180.088 482.79 181.007 481.479 181.551C480.168 182.094 478.726 182.236 477.335 181.96C475.943 181.683 474.665 181 473.661 179.997C472.658 178.994 471.975 177.716 471.698 176.325C471.421 174.934 471.563 173.491 472.106 172.181C472.648 170.87 473.568 169.749 474.747 168.961C475.927 168.173 477.314 167.752 478.732 167.752C480.634 167.752 482.458 168.508 483.803 169.852C485.148 171.197 485.904 173.02 485.905 174.922Z" fill="#F38DB6"/>
<path d="M285.431 110.823C288.232 108.022 288.232 103.48 285.431 100.679C282.63 97.8781 278.089 97.8782 275.288 100.679C272.487 103.48 272.487 108.022 275.288 110.823C278.089 113.624 282.63 113.624 285.431 110.823Z" fill="#98C4E9"/>
<path d="M42.5048 271.802C42.5053 273.221 42.0848 274.608 41.2967 275.788C40.5085 276.968 39.388 277.888 38.0771 278.431C36.7661 278.974 35.3234 279.116 33.9317 278.839C32.54 278.562 31.2618 277.878 30.2587 276.875C29.2557 275.871 28.5729 274.592 28.2968 273.2C28.0207 271.808 28.1636 270.366 28.7075 269.055C29.2514 267.745 30.1719 266.625 31.3524 265.837C32.533 265.05 33.9205 264.631 35.3395 264.632C37.2401 264.634 39.0623 265.39 40.4057 266.734C41.7492 268.079 42.5041 269.901 42.5048 271.802Z" fill="#A4DEF6"/>
<path d="M491.649 318.968C491.649 320.387 491.229 321.774 490.44 322.953C489.652 324.133 488.532 325.052 487.221 325.595C485.911 326.138 484.469 326.28 483.077 326.003C481.686 325.726 480.408 325.043 479.405 324.04C478.402 323.037 477.719 321.759 477.442 320.368C477.165 318.976 477.307 317.534 477.85 316.224C478.393 314.913 479.312 313.793 480.492 313.005C481.671 312.217 483.058 311.796 484.477 311.796C485.419 311.796 486.351 311.981 487.222 312.341C488.092 312.702 488.883 313.23 489.549 313.896C490.215 314.562 490.743 315.353 491.104 316.223C491.464 317.094 491.649 318.026 491.649 318.968Z" fill="#A4DEF6"/>
<path d="M233.723 30.7594C233.724 32.1782 233.303 33.5653 232.515 34.7452C231.728 35.925 230.607 36.8448 229.297 37.3879C227.986 37.9311 226.544 38.0734 225.152 37.7967C223.76 37.52 222.482 36.8368 221.479 35.8336C220.476 34.8303 219.793 33.5521 219.516 32.1605C219.239 30.7689 219.381 29.3266 219.925 28.0159C220.468 26.7051 221.388 25.585 222.567 24.797C223.747 24.0091 225.134 23.5888 226.553 23.5892C228.455 23.5892 230.279 24.3447 231.623 25.6893C232.968 27.034 233.723 28.8577 233.723 30.7594Z" fill="#FFD47C"/>
<path d="M458.506 430.215C458.507 431.634 458.087 433.021 457.299 434.201C456.511 435.38 455.391 436.3 454.08 436.843C452.77 437.387 451.327 437.529 449.936 437.253C448.544 436.976 447.266 436.293 446.263 435.29C445.259 434.287 444.576 433.009 444.299 431.618C444.022 430.226 444.164 428.784 444.707 427.473C445.25 426.162 446.169 425.042 447.349 424.254C448.528 423.466 449.915 423.045 451.334 423.045C453.236 423.045 455.06 423.8 456.405 425.145C457.75 426.489 458.506 428.313 458.506 430.215Z" fill="#FFD47C"/>
</svg>
