<svg width="103" height="68" viewBox="0 0 103 68" fill="none" xmlns="http://www.w3.org/2000/svg">
<g filter="url(#filter0_d)">
<path d="M42.8546 30C42.8896 16.7393 53.8861 6 67.4459 6C76.7317 6 84.8154 11.0363 89 18.4697L78.8795 24.1874C76.7182 20.1687 72.409 17.4286 67.4459 17.4286C60.3364 17.4286 54.5689 23.0511 54.5339 30H42.8546Z" fill="url(#paint0_linear)"/>
<path d="M6 54L6 33.6825H17.6793V42.5714H30.0074C37.0628 42.5099 42.8199 36.9106 42.8546 30H54.5339C54.499 43.2224 43.5132 53.938 30.0074 53.9997L6 54Z" fill="url(#paint1_linear)"/>
<path d="M49.7487 46.6447C54.221 51.1795 60.4968 54 67.4459 54C76.7317 54 84.8154 48.9637 89 41.5303L78.8795 35.8126C76.7182 39.8313 72.409 42.5714 67.4459 42.5714C62.0923 42.5714 57.4997 39.3832 55.5427 34.8413C55.3975 35.5577 55.2197 36.2746 55.0086 36.9904C53.9419 40.6074 52.1242 43.8593 49.7487 46.6447Z" fill="url(#paint2_linear)"/>
<path d="M47.4617 13.229C44.6035 16.6839 42.6232 20.7756 41.823 25.2287C39.8974 20.6829 35.338 17.4755 30.0074 17.4291L17.6793 17.4286V26.3175H6L6 6L30.0074 6C36.845 6.03127 43.0232 8.79352 47.4617 13.229Z" fill="url(#paint3_linear)"/>
</g>
<defs>
<filter id="filter0_d" x="0" y="0" width="103" height="68" filterUnits="userSpaceOnUse" color-interpolation-filters="sRGB">
<feFlood flood-opacity="0" result="BackgroundImageFix"/>
<feColorMatrix in="SourceAlpha" type="matrix" values="0 0 0 0 0 0 0 0 0 0 0 0 0 0 0 0 0 0 127 0"/>
<feOffset dx="4" dy="4"/>
<feGaussianBlur stdDeviation="5"/>
<feColorMatrix type="matrix" values="0 0 0 0 0 0 0 0 0 0 0 0 0 0 0 0 0 0 0.25 0"/>
<feBlend mode="normal" in2="BackgroundImageFix" result="effect1_dropShadow"/>
<feBlend mode="normal" in="SourceGraphic" in2="effect1_dropShadow" result="shape"/>
</filter>
<linearGradient id="paint0_linear" x1="9.54028" y1="12.75" x2="94.4303" y2="16.2776" gradientUnits="userSpaceOnUse">
<stop stop-color="#39AFFD"/>
<stop offset="1" stop-color="#477FFF"/>
</linearGradient>
<linearGradient id="paint1_linear" x1="9.54028" y1="12.75" x2="94.4303" y2="16.2776" gradientUnits="userSpaceOnUse">
<stop stop-color="#39AFFD"/>
<stop offset="1" stop-color="#477FFF"/>
</linearGradient>
<linearGradient id="paint2_linear" x1="9.54028" y1="12.75" x2="94.4303" y2="16.2776" gradientUnits="userSpaceOnUse">
<stop stop-color="#39AFFD"/>
<stop offset="1" stop-color="#477FFF"/>
</linearGradient>
<linearGradient id="paint3_linear" x1="9.54028" y1="12.75" x2="94.4303" y2="16.2776" gradientUnits="userSpaceOnUse">
<stop stop-color="#39AFFD"/>
<stop offset="1" stop-color="#477FFF"/>
</linearGradient>
</defs>
</svg>
