<svg width="81" height="48" viewBox="0 0 81 48" fill="none" xmlns="http://www.w3.org/2000/svg">
<path d="M35.9668 24C36.001 10.7393 46.7325 0 59.9655 0C69.0276 0 76.9165 5.0363 81.0003 12.4697L71.1237 18.1874C69.0144 14.1687 64.8091 11.4286 59.9655 11.4286C53.0273 11.4286 47.3989 17.0511 47.3648 24H35.9668Z" fill="url(#paint0_linear_509_7)"/>
<path d="M0 48V27.6825H11.3978V36.5714H23.4289V36.5709C30.3143 36.5094 35.9326 30.9106 35.9665 24H47.3645C47.3304 37.2224 36.6092 47.938 23.4289 47.9997V48H0Z" fill="url(#paint1_linear_509_7)"/>
<path d="M42.6953 40.6452C47.0598 45.18 53.1844 48.0005 59.966 48.0005C69.0281 48.0005 76.917 42.9642 81.0008 35.5308L71.1242 29.8131C69.0149 33.8318 64.8096 36.5719 59.966 36.5719C54.7415 36.5719 50.2595 33.3837 48.3497 28.8418C48.208 29.5582 48.0345 30.2751 47.8285 30.9909C46.7875 34.6079 45.0136 37.8598 42.6953 40.6452Z" fill="url(#paint2_linear_509_7)"/>
<path d="M40.4626 7.229C37.6732 10.6839 35.7407 14.7756 34.9598 19.2287C33.0806 14.6829 28.6311 11.4755 23.4289 11.4291V11.4286H11.3978V20.3175H0V0H23.4289V0.000259876C30.1017 0.0315399 36.1311 2.79352 40.4626 7.229Z" fill="url(#paint3_linear_509_7)"/>
<defs>
<linearGradient id="paint0_linear_509_7" x1="3.45527" y1="6.75" x2="86.3065" y2="10.1099" gradientUnits="userSpaceOnUse">
<stop stop-color="#39AFFD"/>
<stop offset="1" stop-color="#477FFF"/>
</linearGradient>
<linearGradient id="paint1_linear_509_7" x1="3.45498" y1="6.75" x2="86.3062" y2="10.1099" gradientUnits="userSpaceOnUse">
<stop stop-color="#39AFFD"/>
<stop offset="1" stop-color="#477FFF"/>
</linearGradient>
<linearGradient id="paint2_linear_509_7" x1="3.45579" y1="6.7505" x2="86.307" y2="10.1104" gradientUnits="userSpaceOnUse">
<stop stop-color="#39AFFD"/>
<stop offset="1" stop-color="#477FFF"/>
</linearGradient>
<linearGradient id="paint3_linear_509_7" x1="3.45498" y1="6.75" x2="86.3062" y2="10.1099" gradientUnits="userSpaceOnUse">
<stop stop-color="#39AFFD"/>
<stop offset="1" stop-color="#477FFF"/>
</linearGradient>
</defs>
</svg>
